<svg width="537" height="283" viewBox="0 0 537 283" fill="none" xmlns="http://www.w3.org/2000/svg">
<g style="mix-blend-mode:multiply" opacity="0.15">
<path fill-rule="evenodd" clip-rule="evenodd" d="M270.028 33.309C266.826 33.309 263.867 34.9917 262.212 37.7328L203.195 135.818C183.885 167.613 174.168 193.573 174.168 213.697C174.168 235.016 182.46 251.965 198.975 264.423C215.313 276.785 238.016 283 266.853 283C295.689 283 320.156 276.867 337.838 264.653C355.317 252.576 364.083 236.061 364.083 215.231C364.083 202.013 360.351 187.493 352.874 171.453C345.546 155.726 320.713 111.215 277.926 37.855C276.298 35.0459 273.285 33.3225 270.042 33.3225L270.028 33.309Z" fill="#08A03F"/>
<path fill-rule="evenodd" clip-rule="evenodd" d="M281.632 21.3262C280.519 24.2845 281.062 27.6228 283.07 30.0654C320.673 76.0276 370.448 158.331 415.379 185.661C432.383 196.056 449.997 197.114 468.249 188.877C486.311 180.776 501.102 168.861 515.582 144.001C530.509 118.421 537.565 95.053 536.751 73.9242C535.937 52.9447 527.171 37.3797 510.547 27.2835C500.017 20.8648 486.596 17.0381 470.121 15.6946C454 14.3919 370.788 14.2697 289.774 15.5996C286.137 15.6539 282.907 17.9337 281.632 21.3398V21.3262Z" fill="#08A03F"/>
<path fill-rule="evenodd" clip-rule="evenodd" d="M281.428 -5.16328C282.867 -2.69351 285.499 -1.1465 288.362 -1.10579C369.811 0.251221 453.905 0.129089 470.121 -1.18721C486.596 -2.51709 500.003 -6.35747 510.547 -12.7762C527.157 -22.8724 535.937 -38.4509 536.751 -59.4169C537.565 -80.5456 530.522 -103.913 515.582 -129.493C501.116 -154.354 486.311 -166.282 468.249 -174.37C449.997 -182.593 432.383 -181.548 415.379 -171.154C370.096 -143.606 319.886 -60.2039 282.174 -14.4588C280.003 -11.8262 279.705 -8.108 281.428 -5.1497V-5.16328Z" fill="#08A03F"/>
<path fill-rule="evenodd" clip-rule="evenodd" d="M255.291 20.6338C253.921 17.6077 250.935 15.64 247.624 15.5857C166.434 14.2423 82.9092 14.3644 66.7471 15.6807C50.2322 17.0242 36.8113 20.851 26.2809 27.2697C9.64382 37.3794 0.877484 52.9444 0.0632731 73.9239C-0.750938 95.0527 6.29199 118.421 21.2463 144C35.7528 168.861 50.5579 180.789 68.6063 188.877C86.8582 197.114 104.486 196.056 121.435 185.661C166.502 158.235 216.453 75.4981 254.097 29.6173C256.173 27.0932 256.635 23.6057 255.291 20.6338Z" fill="#08A03F"/>
<path fill-rule="evenodd" clip-rule="evenodd" d="M254.409 -5.25829C256.404 -8.47441 256.146 -12.6133 253.744 -15.5445C216.141 -61.5067 166.352 -143.823 121.421 -171.154C104.472 -181.548 86.8446 -182.593 68.5927 -174.37C50.5444 -166.268 35.7393 -154.354 21.2328 -129.493C6.29199 -103.913 -0.750936 -80.5456 0.063275 -59.4169C0.877486 -38.4374 9.64382 -22.8724 26.2673 -12.7762C36.7978 -6.35748 50.2187 -2.51711 66.7336 -1.18723C82.855 0.115509 166.027 0.237625 247.027 -1.09225C250.04 -1.14653 252.821 -2.72067 254.409 -5.27187V-5.25829Z" fill="#08A03F"/>
</g>
</svg>
