<svg width="170" height="149" viewBox="0 0 170 149" fill="none" xmlns="http://www.w3.org/2000/svg">
<g opacity="0.2" filter="url(#filter0_d_63_1556)">
<rect x="3.63098" width="162.486" height="141.608" rx="16.8" fill="url(#paint0_linear_63_1556)"/>
</g>
<path d="M52.3088 127.563V128.56H47.6877V127.563H52.3088ZM47.929 119.318V128.56H46.7039V119.318H47.929ZM56.644 128.687C56.1658 128.687 55.7321 128.607 55.3428 128.446C54.9577 128.281 54.6255 128.05 54.3462 127.754C54.0711 127.458 53.8595 127.106 53.7114 126.7C53.5633 126.294 53.4892 125.85 53.4892 125.367V125.101C53.4892 124.542 53.5718 124.045 53.7368 123.609C53.9018 123.169 54.1261 122.796 54.4097 122.492C54.6932 122.187 55.0148 121.956 55.3745 121.8C55.7342 121.643 56.1066 121.565 56.4917 121.565C56.9826 121.565 57.4058 121.65 57.7612 121.819C58.1209 121.988 58.415 122.225 58.6435 122.53C58.8721 122.83 59.0413 123.186 59.1514 123.596C59.2614 124.002 59.3164 124.447 59.3164 124.929V125.456H54.1875V124.498H58.1421V124.409C58.1252 124.104 58.0617 123.808 57.9517 123.52C57.8459 123.232 57.6766 122.995 57.4438 122.809C57.2111 122.623 56.8937 122.53 56.4917 122.53C56.2251 122.53 55.9796 122.587 55.7554 122.701C55.5311 122.811 55.3385 122.976 55.1777 123.196C55.0169 123.416 54.8921 123.685 54.8032 124.002C54.7143 124.32 54.6699 124.686 54.6699 125.101V125.367C54.6699 125.693 54.7143 126 54.8032 126.288C54.8963 126.571 55.0296 126.821 55.2031 127.037C55.3808 127.252 55.5946 127.422 55.8442 127.544C56.0981 127.667 56.3859 127.729 56.7075 127.729C57.1222 127.729 57.4735 127.644 57.7612 127.475C58.049 127.305 58.3008 127.079 58.5166 126.795L59.2275 127.36C59.0794 127.585 58.8911 127.798 58.6626 128.001C58.4341 128.205 58.1527 128.37 57.8183 128.497C57.4883 128.624 57.0968 128.687 56.644 128.687ZM64.9973 127.386V123.85C64.9973 123.579 64.9423 123.344 64.8323 123.146C64.7265 122.942 64.5657 122.786 64.3498 122.676C64.134 122.566 63.8674 122.511 63.55 122.511C63.2538 122.511 62.9936 122.562 62.7693 122.663C62.5492 122.765 62.3757 122.898 62.2488 123.063C62.126 123.228 62.0647 123.406 62.0647 123.596H60.8904C60.8904 123.351 60.9538 123.107 61.0808 122.866C61.2077 122.625 61.3897 122.407 61.6267 122.212C61.8679 122.014 62.1557 121.857 62.49 121.743C62.8285 121.624 63.2051 121.565 63.6199 121.565C64.1192 121.565 64.5593 121.65 64.9402 121.819C65.3253 121.988 65.6257 122.244 65.8415 122.587C66.0616 122.925 66.1716 123.351 66.1716 123.863V127.062C66.1716 127.291 66.1907 127.534 66.2287 127.792C66.2711 128.05 66.3324 128.272 66.4128 128.458V128.56H65.1877C65.1285 128.425 65.0819 128.245 65.0481 128.021C65.0142 127.792 64.9973 127.58 64.9973 127.386ZM65.2004 124.396L65.2131 125.221H64.0261C63.6918 125.221 63.3935 125.249 63.1311 125.304C62.8687 125.354 62.6487 125.433 62.4709 125.539C62.2932 125.644 62.1578 125.778 62.0647 125.938C61.9716 126.095 61.925 126.279 61.925 126.491C61.925 126.707 61.9737 126.903 62.071 127.081C62.1684 127.259 62.3144 127.401 62.509 127.506C62.7079 127.608 62.9512 127.659 63.239 127.659C63.5987 127.659 63.9161 127.583 64.1911 127.43C64.4662 127.278 64.6841 127.092 64.845 126.872C65.01 126.652 65.0989 126.438 65.1116 126.23L65.613 126.795C65.5834 126.973 65.503 127.17 65.3718 127.386C65.2406 127.602 65.065 127.809 64.845 128.008C64.6291 128.202 64.371 128.365 64.0705 128.497C63.7743 128.624 63.44 128.687 63.0676 128.687C62.6021 128.687 62.1937 128.596 61.8425 128.414C61.4955 128.232 61.2247 127.989 61.03 127.684C60.8396 127.375 60.7444 127.03 60.7444 126.649C60.7444 126.281 60.8163 125.958 60.9602 125.678C61.1041 125.395 61.3114 125.16 61.5823 124.974C61.8531 124.783 62.1789 124.639 62.5598 124.542C62.9407 124.445 63.3659 124.396 63.8357 124.396H65.2004ZM72.6079 127.227V118.81H73.7885V128.56H72.7094L72.6079 127.227ZM67.9868 125.202V125.069C67.9868 124.544 68.0503 124.068 68.1772 123.641C68.3084 123.209 68.4925 122.839 68.7295 122.53C68.9707 122.221 69.2563 121.984 69.5864 121.819C69.9207 121.65 70.2931 121.565 70.7036 121.565C71.1352 121.565 71.5119 121.641 71.8335 121.793C72.1593 121.942 72.4344 122.16 72.6587 122.447C72.8872 122.731 73.067 123.074 73.1982 123.476C73.3294 123.878 73.4204 124.333 73.4712 124.84V125.424C73.4246 125.928 73.3336 126.381 73.1982 126.783C73.067 127.185 72.8872 127.528 72.6587 127.811C72.4344 128.095 72.1593 128.312 71.8335 128.465C71.5076 128.613 71.1268 128.687 70.6909 128.687C70.2889 128.687 69.9207 128.6 69.5864 128.427C69.2563 128.253 68.9707 128.01 68.7295 127.697C68.4925 127.384 68.3084 127.015 68.1772 126.592C68.0503 126.165 67.9868 125.701 67.9868 125.202ZM69.1675 125.069V125.202C69.1675 125.545 69.2013 125.867 69.269 126.167C69.341 126.467 69.451 126.732 69.5991 126.96C69.7472 127.189 69.9355 127.369 70.164 127.5C70.3925 127.627 70.6655 127.69 70.9829 127.69C71.3722 127.69 71.6917 127.608 71.9414 127.443C72.1953 127.278 72.3984 127.06 72.5508 126.789C72.7031 126.518 72.8216 126.224 72.9062 125.907V124.377C72.8554 124.144 72.7814 123.92 72.6841 123.704C72.591 123.484 72.4682 123.289 72.3159 123.12C72.1678 122.947 71.9837 122.809 71.7636 122.708C71.5478 122.606 71.2918 122.555 70.9956 122.555C70.674 122.555 70.3968 122.623 70.164 122.758C69.9355 122.889 69.7472 123.071 69.5991 123.304C69.451 123.533 69.341 123.799 69.269 124.104C69.2013 124.404 69.1675 124.726 69.1675 125.069ZM78.7268 128.687C78.2486 128.687 77.8148 128.607 77.4255 128.446C77.0404 128.281 76.7082 128.05 76.4289 127.754C76.1539 127.458 75.9423 127.106 75.7942 126.7C75.646 126.294 75.572 125.85 75.572 125.367V125.101C75.572 124.542 75.6545 124.045 75.8195 123.609C75.9846 123.169 76.2089 122.796 76.4924 122.492C76.7759 122.187 77.0975 121.956 77.4572 121.8C77.8169 121.643 78.1893 121.565 78.5744 121.565C79.0653 121.565 79.4885 121.65 79.844 121.819C80.2037 121.988 80.4978 122.225 80.7263 122.53C80.9548 122.83 81.1241 123.186 81.2341 123.596C81.3441 124.002 81.3991 124.447 81.3991 124.929V125.456H76.2702V124.498H80.2248V124.409C80.2079 124.104 80.1444 123.808 80.0344 123.52C79.9286 123.232 79.7593 122.995 79.5266 122.809C79.2938 122.623 78.9764 122.53 78.5744 122.53C78.3078 122.53 78.0624 122.587 77.8381 122.701C77.6138 122.811 77.4213 122.976 77.2605 123.196C77.0997 123.416 76.9748 123.685 76.8859 124.002C76.7971 124.32 76.7526 124.686 76.7526 125.101V125.367C76.7526 125.693 76.7971 126 76.8859 126.288C76.979 126.571 77.1123 126.821 77.2859 127.037C77.4636 127.252 77.6773 127.422 77.927 127.544C78.1809 127.667 78.4686 127.729 78.7902 127.729C79.205 127.729 79.5562 127.644 79.844 127.475C80.1317 127.305 80.3835 127.079 80.5993 126.795L81.3103 127.36C81.1622 127.585 80.9738 127.798 80.7453 128.001C80.5168 128.205 80.2354 128.37 79.9011 128.497C79.571 128.624 79.1796 128.687 78.7268 128.687ZM84.2045 122.771V128.56H83.0302V121.692H84.1728L84.2045 122.771ZM86.35 121.654L86.3437 122.746C86.2464 122.724 86.1533 122.712 86.0644 122.708C85.9798 122.699 85.8824 122.695 85.7724 122.695C85.5016 122.695 85.2625 122.737 85.0551 122.822C84.8478 122.906 84.6722 123.025 84.5283 123.177C84.3844 123.33 84.2701 123.512 84.1855 123.723C84.1051 123.931 84.0522 124.159 84.0268 124.409L83.6967 124.599C83.6967 124.184 83.7369 123.795 83.8173 123.431C83.902 123.067 84.031 122.746 84.2045 122.466C84.378 122.183 84.5981 121.963 84.8647 121.806C85.1355 121.645 85.4571 121.565 85.8295 121.565C85.9142 121.565 86.0115 121.576 86.1215 121.597C86.2316 121.614 86.3077 121.633 86.35 121.654ZM91.6945 126.738C91.6945 126.569 91.6564 126.412 91.5803 126.269C91.5083 126.12 91.3581 125.987 91.1296 125.869C90.9053 125.746 90.5668 125.64 90.114 125.551C89.7331 125.471 89.3882 125.376 89.0793 125.266C88.7746 125.156 88.5143 125.022 88.2985 124.866C88.0869 124.709 87.924 124.525 87.8098 124.313C87.6955 124.102 87.6384 123.854 87.6384 123.571C87.6384 123.3 87.6976 123.044 87.8161 122.803C87.9388 122.562 88.1102 122.348 88.3303 122.162C88.5545 121.975 88.8233 121.829 89.1364 121.724C89.4496 121.618 89.7987 121.565 90.1838 121.565C90.7339 121.565 91.2036 121.662 91.593 121.857C91.9823 122.052 92.2806 122.312 92.488 122.638C92.6953 122.959 92.799 123.317 92.799 123.71H91.6247C91.6247 123.52 91.5676 123.336 91.4533 123.158C91.3433 122.976 91.1804 122.826 90.9645 122.708C90.753 122.589 90.4927 122.53 90.1838 122.53C89.8579 122.53 89.5934 122.581 89.3903 122.682C89.1914 122.779 89.0454 122.904 88.9523 123.057C88.8635 123.209 88.819 123.37 88.819 123.539C88.819 123.666 88.8402 123.78 88.8825 123.882C88.9291 123.979 89.0095 124.07 89.1237 124.155C89.238 124.235 89.3988 124.311 89.6061 124.383C89.8135 124.455 90.078 124.527 90.3996 124.599C90.9624 124.726 91.4258 124.878 91.7897 125.056C92.1537 125.234 92.4245 125.452 92.6022 125.71C92.78 125.968 92.8688 126.281 92.8688 126.649C92.8688 126.95 92.8054 127.225 92.6784 127.475C92.5557 127.724 92.3758 127.94 92.1389 128.122C91.9061 128.3 91.6268 128.439 91.301 128.541C90.9794 128.638 90.6175 128.687 90.2155 128.687C89.6104 128.687 89.0983 128.579 88.6794 128.363C88.2604 128.147 87.9431 127.868 87.7272 127.525C87.5114 127.183 87.4035 126.821 87.4035 126.44H88.5842C88.6011 126.762 88.6942 127.018 88.8635 127.208C89.0327 127.394 89.2401 127.528 89.4855 127.608C89.731 127.684 89.9743 127.722 90.2155 127.722C90.5371 127.722 90.8059 127.68 91.0217 127.595C91.2417 127.511 91.4089 127.394 91.5231 127.246C91.6374 127.098 91.6945 126.929 91.6945 126.738ZM103.259 126.224C103.259 126.008 103.226 125.818 103.158 125.653C103.094 125.484 102.98 125.331 102.815 125.196C102.654 125.06 102.43 124.931 102.142 124.809C101.859 124.686 101.499 124.561 101.063 124.434C100.606 124.299 100.194 124.148 99.8254 123.983C99.4572 123.814 99.1419 123.622 98.8796 123.406C98.6172 123.19 98.4162 122.942 98.2765 122.663C98.1369 122.384 98.0671 122.064 98.0671 121.705C98.0671 121.345 98.1411 121.013 98.2892 120.708C98.4373 120.403 98.6489 120.139 98.924 119.915C99.2033 119.686 99.5355 119.508 99.9206 119.381C100.306 119.254 100.735 119.191 101.209 119.191C101.903 119.191 102.491 119.324 102.974 119.591C103.46 119.853 103.831 120.198 104.085 120.625C104.339 121.049 104.465 121.501 104.465 121.984H103.247C103.247 121.637 103.173 121.33 103.025 121.063C102.876 120.793 102.652 120.581 102.352 120.429C102.051 120.272 101.67 120.194 101.209 120.194C100.773 120.194 100.414 120.259 100.13 120.391C99.8465 120.522 99.6349 120.7 99.4953 120.924C99.3599 121.148 99.2922 121.404 99.2922 121.692C99.2922 121.887 99.3324 122.064 99.4128 122.225C99.4974 122.382 99.6265 122.528 99.8 122.663C99.9777 122.799 100.202 122.923 100.473 123.038C100.748 123.152 101.076 123.262 101.457 123.368C101.981 123.516 102.434 123.681 102.815 123.863C103.196 124.045 103.509 124.25 103.755 124.479C104.004 124.703 104.188 124.959 104.307 125.247C104.43 125.53 104.491 125.852 104.491 126.211C104.491 126.588 104.415 126.929 104.262 127.233C104.11 127.538 103.892 127.798 103.609 128.014C103.325 128.23 102.984 128.397 102.587 128.516C102.193 128.63 101.753 128.687 101.266 128.687C100.839 128.687 100.418 128.628 100.003 128.509C99.5926 128.391 99.2181 128.213 98.8796 127.976C98.5453 127.739 98.2765 127.447 98.0734 127.1C97.8745 126.749 97.7751 126.343 97.7751 125.881H98.9938C98.9938 126.199 99.0552 126.472 99.1779 126.7C99.3006 126.924 99.4678 127.111 99.6794 127.259C99.8952 127.407 100.139 127.517 100.409 127.589C100.684 127.657 100.97 127.69 101.266 127.69C101.694 127.69 102.056 127.631 102.352 127.513C102.648 127.394 102.872 127.225 103.025 127.005C103.181 126.785 103.259 126.525 103.259 126.224ZM107.309 123.012V131.201H106.128V121.692H107.207L107.309 123.012ZM111.936 125.069V125.202C111.936 125.701 111.877 126.165 111.759 126.592C111.64 127.015 111.467 127.384 111.238 127.697C111.014 128.01 110.737 128.253 110.407 128.427C110.077 128.6 109.698 128.687 109.27 128.687C108.835 128.687 108.449 128.615 108.115 128.471C107.781 128.327 107.497 128.118 107.265 127.843C107.032 127.568 106.846 127.238 106.706 126.853C106.571 126.467 106.477 126.034 106.427 125.551V124.84C106.477 124.333 106.573 123.878 106.712 123.476C106.852 123.074 107.036 122.731 107.265 122.447C107.497 122.16 107.779 121.942 108.109 121.793C108.439 121.641 108.82 121.565 109.251 121.565C109.683 121.565 110.066 121.65 110.4 121.819C110.735 121.984 111.016 122.221 111.245 122.53C111.473 122.839 111.644 123.209 111.759 123.641C111.877 124.068 111.936 124.544 111.936 125.069ZM110.756 125.202V125.069C110.756 124.726 110.72 124.404 110.648 124.104C110.576 123.799 110.464 123.533 110.311 123.304C110.163 123.071 109.973 122.889 109.74 122.758C109.507 122.623 109.23 122.555 108.909 122.555C108.612 122.555 108.354 122.606 108.134 122.708C107.918 122.809 107.734 122.947 107.582 123.12C107.43 123.289 107.305 123.484 107.207 123.704C107.114 123.92 107.045 124.144 106.998 124.377V126.021C107.083 126.317 107.201 126.597 107.353 126.859C107.506 127.117 107.709 127.326 107.963 127.487C108.217 127.644 108.536 127.722 108.921 127.722C109.239 127.722 109.512 127.657 109.74 127.525C109.973 127.39 110.163 127.206 110.311 126.973C110.464 126.74 110.576 126.474 110.648 126.173C110.72 125.869 110.756 125.545 110.756 125.202ZM116.545 128.687C116.066 128.687 115.633 128.607 115.243 128.446C114.858 128.281 114.526 128.05 114.247 127.754C113.972 127.458 113.76 127.106 113.612 126.7C113.464 126.294 113.39 125.85 113.39 125.367V125.101C113.39 124.542 113.472 124.045 113.637 123.609C113.802 123.169 114.027 122.796 114.31 122.492C114.594 122.187 114.915 121.956 115.275 121.8C115.635 121.643 116.007 121.565 116.392 121.565C116.883 121.565 117.306 121.65 117.662 121.819C118.021 121.988 118.316 122.225 118.544 122.53C118.773 122.83 118.942 123.186 119.052 123.596C119.162 124.002 119.217 124.447 119.217 124.929V125.456H114.088V124.498H118.043V124.409C118.026 124.104 117.962 123.808 117.852 123.52C117.746 123.232 117.577 122.995 117.344 122.809C117.112 122.623 116.794 122.53 116.392 122.53C116.126 122.53 115.88 122.587 115.656 122.701C115.432 122.811 115.239 122.976 115.078 123.196C114.917 123.416 114.793 123.685 114.704 124.002C114.615 124.32 114.57 124.686 114.57 125.101V125.367C114.57 125.693 114.615 126 114.704 126.288C114.797 126.571 114.93 126.821 115.104 127.037C115.281 127.252 115.495 127.422 115.745 127.544C115.999 127.667 116.286 127.729 116.608 127.729C117.023 127.729 117.374 127.644 117.662 127.475C117.95 127.305 118.201 127.079 118.417 126.795L119.128 127.36C118.98 127.585 118.792 127.798 118.563 128.001C118.335 128.205 118.053 128.37 117.719 128.497C117.389 128.624 116.997 128.687 116.545 128.687ZM124.898 127.386V123.85C124.898 123.579 124.843 123.344 124.733 123.146C124.627 122.942 124.466 122.786 124.25 122.676C124.035 122.566 123.768 122.511 123.451 122.511C123.154 122.511 122.894 122.562 122.67 122.663C122.45 122.765 122.276 122.898 122.149 123.063C122.027 123.228 121.965 123.406 121.965 123.596H120.791C120.791 123.351 120.854 123.107 120.981 122.866C121.108 122.625 121.29 122.407 121.527 122.212C121.768 122.014 122.056 121.857 122.391 121.743C122.729 121.624 123.106 121.565 123.52 121.565C124.02 121.565 124.46 121.65 124.841 121.819C125.226 121.988 125.526 122.244 125.742 122.587C125.962 122.925 126.072 123.351 126.072 123.863V127.062C126.072 127.291 126.091 127.534 126.129 127.792C126.172 128.05 126.233 128.272 126.313 128.458V128.56H125.088C125.029 128.425 124.982 128.245 124.949 128.021C124.915 127.792 124.898 127.58 124.898 127.386ZM125.101 124.396L125.114 125.221H123.927C123.592 125.221 123.294 125.249 123.032 125.304C122.769 125.354 122.549 125.433 122.371 125.539C122.194 125.644 122.058 125.778 121.965 125.938C121.872 126.095 121.826 126.279 121.826 126.491C121.826 126.707 121.874 126.903 121.972 127.081C122.069 127.259 122.215 127.401 122.41 127.506C122.608 127.608 122.852 127.659 123.14 127.659C123.499 127.659 123.817 127.583 124.092 127.43C124.367 127.278 124.585 127.092 124.745 126.872C124.911 126.652 124.999 126.438 125.012 126.23L125.514 126.795C125.484 126.973 125.404 127.17 125.272 127.386C125.141 127.602 124.966 127.809 124.745 128.008C124.53 128.202 124.272 128.365 123.971 128.497C123.675 128.624 123.341 128.687 122.968 128.687C122.503 128.687 122.094 128.596 121.743 128.414C121.396 128.232 121.125 127.989 120.931 127.684C120.74 127.375 120.645 127.03 120.645 126.649C120.645 126.281 120.717 125.958 120.861 125.678C121.005 125.395 121.212 125.16 121.483 124.974C121.754 124.783 122.079 124.639 122.46 124.542C122.841 124.445 123.266 124.396 123.736 124.396H125.101ZM129.36 118.81V128.56H128.179V118.81H129.36ZM133.556 121.692L130.56 124.897L128.884 126.637L128.789 125.386L129.988 123.952L132.121 121.692H133.556ZM132.483 128.56L130.033 125.285L130.642 124.237L133.867 128.56H132.483Z" fill="white"/>
<path d="M59.8538 112.703L59.8538 53.4072" stroke="white" stroke-width="0.907743" stroke-miterlimit="10"/>
<path d="M115.867 51.5547L84.928 53.9043V113.284" stroke="white" stroke-width="0.907743" stroke-miterlimit="10"/>
<path d="M59.2426 81.6099H50.8342V53.3686C50.8342 53.3686 50.7079 43.9137 61.7901 43.5349C72.3645 43.9137 116.185 44.0399 116.185 44.0399V44.1648" stroke="white" stroke-width="0.907743" stroke-miterlimit="10"/>
<path d="M72.6428 80.1484L72.6428 112.703" stroke="white" stroke-width="0.907743" stroke-miterlimit="10"/>
<path d="M116.522 24.3403L116.625 112" stroke="white" stroke-width="0.907743" stroke-miterlimit="10"/>
<path d="M117.108 26.9463H132.222V39.7356H117.108" fill="white"/>
<path d="M132.221 46.7117L150.491 46.6609L143.782 38.6402L150.824 30.4343L132.221 30.5221V46.7117Z" fill="white"/>
<path d="M71.9989 37.6515C76.8814 37.6515 80.8394 33.6934 80.8394 28.811C80.8394 23.9285 76.8814 19.9705 71.9989 19.9705C67.1165 19.9705 63.1584 23.9285 63.1584 28.811C63.1584 33.6934 67.1165 37.6515 71.9989 37.6515Z" stroke="white" stroke-width="0.907743" stroke-miterlimit="10"/>
<defs>
<filter id="filter0_d_63_1556" x="8.34465e-06" y="0" width="169.748" height="148.87" filterUnits="userSpaceOnUse" color-interpolation-filters="sRGB">
<feFlood flood-opacity="0" result="BackgroundImageFix"/>
<feColorMatrix in="SourceAlpha" type="matrix" values="0 0 0 0 0 0 0 0 0 0 0 0 0 0 0 0 0 0 127 0" result="hardAlpha"/>
<feOffset dy="3.63097"/>
<feGaussianBlur stdDeviation="1.81549"/>
<feComposite in2="hardAlpha" operator="out"/>
<feColorMatrix type="matrix" values="0 0 0 0 0 0 0 0 0 0 0 0 0 0 0 0 0 0 0.25 0"/>
<feBlend mode="normal" in2="BackgroundImageFix" result="effect1_dropShadow_63_1556"/>
<feBlend mode="normal" in="SourceGraphic" in2="effect1_dropShadow_63_1556" result="shape"/>
</filter>
<linearGradient id="paint0_linear_63_1556" x1="3.63098" y1="70.804" x2="166.117" y2="70.804" gradientUnits="userSpaceOnUse">
<stop stop-color="#08A03F"/>
<stop offset="0.356716" stop-color="#09C74E"/>
<stop offset="1" stop-color="#09F519"/>
</linearGradient>
</defs>
</svg>
