<svg width="170" height="149" viewBox="0 0 170 149" fill="none" xmlns="http://www.w3.org/2000/svg">
<g opacity="0.2" filter="url(#filter0_d_63_1602)">
<rect x="3.63098" width="162.486" height="141.608" rx="17.1" fill="url(#paint0_linear_63_1602)"/>
</g>
<path d="M29.3302 128.621H30.549C30.4855 129.205 30.3183 129.728 30.0475 130.189C29.7767 130.65 29.3937 131.016 28.8986 131.287C28.4034 131.554 27.7856 131.687 27.045 131.687C26.5034 131.687 26.0104 131.585 25.566 131.382C25.1259 131.179 24.7472 130.891 24.4298 130.519C24.1124 130.142 23.867 129.692 23.6935 129.167C23.5242 128.638 23.4396 128.05 23.4396 127.402V126.482C23.4396 125.834 23.5242 125.248 23.6935 124.724C23.867 124.195 24.1145 123.742 24.4362 123.365C24.762 122.989 25.1534 122.699 25.6105 122.496C26.0675 122.292 26.5817 122.191 27.153 122.191C27.8512 122.191 28.4415 122.322 28.924 122.584C29.4064 122.847 29.7809 123.211 30.0475 123.676C30.3183 124.138 30.4855 124.673 30.549 125.282H29.3302C29.271 124.851 29.1609 124.48 29.0001 124.171C28.8393 123.858 28.6108 123.617 28.3146 123.448C28.0184 123.278 27.6311 123.194 27.153 123.194C26.7425 123.194 26.3807 123.272 26.0675 123.429C25.7586 123.585 25.4983 123.807 25.2867 124.095C25.0794 124.383 24.9228 124.728 24.817 125.13C24.7112 125.532 24.6583 125.978 24.6583 126.469V127.402C24.6583 127.855 24.7049 128.28 24.798 128.678C24.8953 129.076 25.0413 129.425 25.236 129.726C25.4306 130.026 25.6782 130.263 25.9786 130.437C26.2791 130.606 26.6346 130.69 27.045 130.69C27.5656 130.69 27.9803 130.608 28.2892 130.443C28.5981 130.278 28.8309 130.041 28.9874 129.732C29.1482 129.423 29.2625 129.053 29.3302 128.621ZM36.3505 130.386V126.85C36.3505 126.579 36.2954 126.344 36.1854 126.146C36.0796 125.942 35.9188 125.786 35.703 125.676C35.4872 125.566 35.2206 125.511 34.9032 125.511C34.607 125.511 34.3467 125.562 34.1224 125.663C33.9024 125.765 33.7289 125.898 33.6019 126.063C33.4792 126.228 33.4178 126.406 33.4178 126.596H32.2435C32.2435 126.351 32.307 126.107 32.434 125.866C32.5609 125.625 32.7429 125.407 32.9798 125.212C33.2211 125.014 33.5088 124.857 33.8431 124.743C34.1817 124.624 34.5583 124.565 34.973 124.565C35.4724 124.565 35.9125 124.65 36.2933 124.819C36.6784 124.988 36.9789 125.244 37.1947 125.587C37.4147 125.925 37.5248 126.351 37.5248 126.863V130.062C37.5248 130.291 37.5438 130.534 37.5819 130.792C37.6242 131.05 37.6856 131.272 37.766 131.458V131.56H36.5409C36.4816 131.425 36.4351 131.245 36.4012 131.021C36.3674 130.792 36.3505 130.58 36.3505 130.386ZM36.5536 127.396L36.5663 128.221H35.3793C35.045 128.221 34.7466 128.249 34.4842 128.304C34.2219 128.354 34.0018 128.433 33.8241 128.539C33.6464 128.644 33.5109 128.778 33.4178 128.938C33.3247 129.095 33.2782 129.279 33.2782 129.491C33.2782 129.707 33.3269 129.903 33.4242 130.081C33.5215 130.259 33.6675 130.401 33.8622 130.506C34.0611 130.608 34.3044 130.659 34.5922 130.659C34.9519 130.659 35.2692 130.583 35.5443 130.43C35.8194 130.278 36.0373 130.092 36.1981 129.872C36.3631 129.652 36.452 129.438 36.4647 129.23L36.9662 129.795C36.9366 129.973 36.8562 130.17 36.725 130.386C36.5938 130.602 36.4182 130.809 36.1981 131.008C35.9823 131.202 35.7242 131.365 35.4237 131.497C35.1275 131.624 34.7932 131.687 34.4208 131.687C33.9553 131.687 33.5469 131.596 33.1957 131.414C32.8487 131.232 32.5778 130.989 32.3832 130.684C32.1927 130.375 32.0975 130.03 32.0975 129.649C32.0975 129.281 32.1695 128.958 32.3133 128.678C32.4572 128.395 32.6646 128.16 32.9354 127.974C33.2062 127.783 33.5321 127.639 33.913 127.542C34.2938 127.445 34.7191 127.396 35.1888 127.396H36.5536ZM42.5074 124.692V125.593H38.794V124.692H42.5074ZM40.0509 123.022H41.2252V129.859C41.2252 130.092 41.2612 130.267 41.3331 130.386C41.4051 130.504 41.4981 130.583 41.6124 130.621C41.7267 130.659 41.8494 130.678 41.9806 130.678C42.0779 130.678 42.1795 130.669 42.2853 130.652C42.3953 130.631 42.4778 130.614 42.5328 130.602L42.5392 131.56C42.4461 131.59 42.3233 131.617 42.171 131.643C42.0229 131.672 41.843 131.687 41.6315 131.687C41.3437 131.687 41.0792 131.63 40.838 131.516C40.5968 131.401 40.4042 131.211 40.2604 130.944C40.1207 130.674 40.0509 130.31 40.0509 129.853V123.022ZM48.1947 130.386V126.85C48.1947 126.579 48.1397 126.344 48.0296 126.146C47.9238 125.942 47.763 125.786 47.5472 125.676C47.3314 125.566 47.0648 125.511 46.7474 125.511C46.4512 125.511 46.1909 125.562 45.9666 125.663C45.7466 125.765 45.5731 125.898 45.4461 126.063C45.3234 126.228 45.2621 126.406 45.2621 126.596H44.0877C44.0877 126.351 44.1512 126.107 44.2782 125.866C44.4051 125.625 44.5871 125.407 44.8241 125.212C45.0653 125.014 45.353 124.857 45.6873 124.743C46.0259 124.624 46.4025 124.565 46.8172 124.565C47.3166 124.565 47.7567 124.65 48.1375 124.819C48.5226 124.988 48.8231 125.244 49.0389 125.587C49.259 125.925 49.369 126.351 49.369 126.863V130.062C49.369 130.291 49.388 130.534 49.4261 130.792C49.4684 131.05 49.5298 131.272 49.6102 131.458V131.56H48.3851C48.3259 131.425 48.2793 131.245 48.2455 131.021C48.2116 130.792 48.1947 130.58 48.1947 130.386ZM48.3978 127.396L48.4105 128.221H47.2235C46.8892 128.221 46.5908 128.249 46.3285 128.304C46.0661 128.354 45.846 128.433 45.6683 128.539C45.4906 128.644 45.3552 128.778 45.2621 128.938C45.169 129.095 45.1224 129.279 45.1224 129.491C45.1224 129.707 45.1711 129.903 45.2684 130.081C45.3657 130.259 45.5117 130.401 45.7064 130.506C45.9053 130.608 46.1486 130.659 46.4364 130.659C46.7961 130.659 47.1135 130.583 47.3885 130.43C47.6636 130.278 47.8815 130.092 48.0423 129.872C48.2074 129.652 48.2962 129.438 48.3089 129.23L48.8104 129.795C48.7808 129.973 48.7004 130.17 48.5692 130.386C48.438 130.602 48.2624 130.809 48.0423 131.008C47.8265 131.202 47.5684 131.365 47.2679 131.497C46.9717 131.624 46.6374 131.687 46.265 131.687C45.7995 131.687 45.3911 131.596 45.0399 131.414C44.6929 131.232 44.422 130.989 44.2274 130.684C44.037 130.375 43.9417 130.03 43.9417 129.649C43.9417 129.281 44.0137 128.958 44.1576 128.678C44.3014 128.395 44.5088 128.16 44.7796 127.974C45.0505 127.783 45.3763 127.639 45.7572 127.542C46.138 127.445 46.5633 127.396 47.0331 127.396H48.3978ZM52.752 121.81V131.56H51.5714V121.81H52.752ZM56.827 130.849L58.7376 124.692H59.9945L57.2396 132.62C57.1761 132.789 57.0915 132.971 56.9857 133.166C56.8841 133.365 56.7529 133.553 56.5921 133.731C56.4313 133.909 56.2366 134.053 56.0081 134.163C55.7838 134.277 55.5151 134.334 55.202 134.334C55.1089 134.334 54.9904 134.321 54.8465 134.296C54.7026 134.271 54.6011 134.249 54.5418 134.232L54.5355 133.28C54.5693 133.285 54.6222 133.289 54.6942 133.293C54.7703 133.301 54.8232 133.306 54.8529 133.306C55.1195 133.306 55.3459 133.27 55.5321 133.198C55.7183 133.13 55.8748 133.014 56.0018 132.849C56.133 132.688 56.2451 132.466 56.3382 132.182L56.827 130.849ZM55.4241 124.692L57.2078 130.024L57.5125 131.262L56.6683 131.693L54.1419 124.692H55.4241ZM65.3135 129.738C65.3135 129.569 65.2755 129.412 65.1993 129.269C65.1273 129.12 64.9771 128.987 64.7486 128.869C64.5243 128.746 64.1858 128.64 63.733 128.551C63.3521 128.471 63.0072 128.376 62.6983 128.266C62.3936 128.156 62.1334 128.022 61.9175 127.866C61.706 127.709 61.543 127.525 61.4288 127.313C61.3145 127.102 61.2574 126.854 61.2574 126.571C61.2574 126.3 61.3166 126.044 61.4351 125.803C61.5578 125.562 61.7292 125.348 61.9493 125.162C62.1736 124.975 62.4423 124.829 62.7554 124.724C63.0686 124.618 63.4177 124.565 63.8028 124.565C64.3529 124.565 64.8227 124.662 65.212 124.857C65.6013 125.052 65.8996 125.312 66.107 125.638C66.3144 125.959 66.418 126.317 66.418 126.71H65.2437C65.2437 126.52 65.1866 126.336 65.0723 126.158C64.9623 125.976 64.7994 125.826 64.5836 125.708C64.372 125.589 64.1117 125.53 63.8028 125.53C63.477 125.53 63.2125 125.581 63.0093 125.682C62.8104 125.779 62.6645 125.904 62.5714 126.057C62.4825 126.209 62.4381 126.37 62.4381 126.539C62.4381 126.666 62.4592 126.78 62.5015 126.882C62.5481 126.979 62.6285 127.07 62.7427 127.155C62.857 127.235 63.0178 127.311 63.2252 127.383C63.4325 127.455 63.697 127.527 64.0186 127.599C64.5814 127.726 65.0448 127.878 65.4088 128.056C65.7727 128.234 66.0435 128.452 66.2213 128.71C66.399 128.968 66.4879 129.281 66.4879 129.649C66.4879 129.95 66.4244 130.225 66.2974 130.475C66.1747 130.724 65.9949 130.94 65.7579 131.122C65.5251 131.3 65.2458 131.439 64.92 131.541C64.5984 131.638 64.2366 131.687 63.8345 131.687C63.2294 131.687 62.7174 131.579 62.2984 131.363C61.8795 131.147 61.5621 130.868 61.3463 130.525C61.1304 130.183 61.0225 129.821 61.0225 129.44H62.2032C62.2201 129.762 62.3132 130.018 62.4825 130.208C62.6518 130.394 62.8591 130.528 63.1046 130.608C63.35 130.684 63.5933 130.722 63.8345 130.722C64.1562 130.722 64.4249 130.68 64.6407 130.595C64.8607 130.511 65.0279 130.394 65.1422 130.246C65.2564 130.098 65.3135 129.929 65.3135 129.738ZM71.1658 124.692V125.593H67.4524V124.692H71.1658ZM68.7093 123.022H69.8836V129.859C69.8836 130.092 69.9196 130.267 69.9915 130.386C70.0634 130.504 70.1565 130.583 70.2708 130.621C70.3851 130.659 70.5078 130.678 70.639 130.678C70.7363 130.678 70.8379 130.669 70.9437 130.652C71.0537 130.631 71.1362 130.614 71.1912 130.602L71.1976 131.56C71.1045 131.59 70.9817 131.617 70.8294 131.643C70.6813 131.672 70.5014 131.687 70.2898 131.687C70.0021 131.687 69.7376 131.63 69.4964 131.516C69.2552 131.401 69.0626 131.211 68.9188 130.944C68.7791 130.674 68.7093 130.31 68.7093 129.853V123.022ZM82.0452 128.621H83.264C83.2005 129.205 83.0333 129.728 82.7625 130.189C82.4917 130.65 82.1087 131.016 81.6136 131.287C81.1184 131.554 80.5006 131.687 79.76 131.687C79.2184 131.687 78.7254 131.585 78.281 131.382C77.8409 131.179 77.4622 130.891 77.1448 130.519C76.8274 130.142 76.582 129.692 76.4085 129.167C76.2392 128.638 76.1546 128.05 76.1546 127.402V126.482C76.1546 125.834 76.2392 125.248 76.4085 124.724C76.582 124.195 76.8295 123.742 77.1512 123.365C77.477 122.989 77.8684 122.699 78.3255 122.496C78.7825 122.292 79.2967 122.191 79.868 122.191C80.5662 122.191 81.1565 122.322 81.639 122.584C82.1214 122.847 82.4959 123.211 82.7625 123.676C83.0333 124.138 83.2005 124.673 83.264 125.282H82.0452C81.986 124.851 81.8759 124.48 81.7151 124.171C81.5543 123.858 81.3258 123.617 81.0296 123.448C80.7334 123.278 80.3461 123.194 79.868 123.194C79.4575 123.194 79.0957 123.272 78.7825 123.429C78.4736 123.585 78.2133 123.807 78.0017 124.095C77.7944 124.383 77.6378 124.728 77.532 125.13C77.4262 125.532 77.3733 125.978 77.3733 126.469V127.402C77.3733 127.855 77.4199 128.28 77.513 128.678C77.6103 129.076 77.7563 129.425 77.951 129.726C78.1456 130.026 78.3932 130.263 78.6936 130.437C78.9941 130.606 79.3496 130.69 79.76 130.69C80.2806 130.69 80.6953 130.608 81.0042 130.443C81.3131 130.278 81.5459 130.041 81.7024 129.732C81.8632 129.423 81.9775 129.053 82.0452 128.621ZM86.19 121.81V131.56H85.0156V121.81H86.19ZM85.9107 127.866L85.4219 127.847C85.4261 127.377 85.496 126.943 85.6314 126.545C85.7668 126.143 85.9572 125.794 86.2027 125.498C86.4481 125.202 86.7401 124.973 87.0786 124.812C87.4214 124.647 87.8002 124.565 88.2149 124.565C88.5534 124.565 88.8581 124.611 89.1289 124.705C89.3998 124.793 89.6304 124.937 89.8208 125.136C90.0155 125.335 90.1636 125.593 90.2652 125.911C90.3667 126.224 90.4175 126.607 90.4175 127.06V131.56H89.2368V127.047C89.2368 126.687 89.1839 126.399 89.0781 126.184C88.9724 125.964 88.8179 125.805 88.6148 125.708C88.4116 125.606 88.162 125.555 87.8657 125.555C87.5738 125.555 87.3072 125.617 87.0659 125.739C86.829 125.862 86.6237 126.031 86.4502 126.247C86.2809 126.463 86.1476 126.71 86.0503 126.99C85.9572 127.265 85.9107 127.557 85.9107 127.866ZM93.6101 125.771V131.56H92.4358V124.692H93.5784L93.6101 125.771ZM95.7556 124.654L95.7493 125.746C95.652 125.724 95.5589 125.712 95.47 125.708C95.3854 125.699 95.288 125.695 95.178 125.695C94.9072 125.695 94.6681 125.737 94.4607 125.822C94.2534 125.906 94.0777 126.025 93.9339 126.177C93.79 126.33 93.6757 126.512 93.5911 126.723C93.5107 126.931 93.4578 127.159 93.4324 127.409L93.1023 127.599C93.1023 127.184 93.1425 126.795 93.2229 126.431C93.3076 126.067 93.4366 125.746 93.6101 125.466C93.7836 125.183 94.0037 124.963 94.2703 124.806C94.5411 124.645 94.8627 124.565 95.2351 124.565C95.3198 124.565 95.4171 124.576 95.5271 124.597C95.6371 124.614 95.7133 124.633 95.7556 124.654ZM96.6631 128.202V128.056C96.6631 127.561 96.735 127.102 96.8789 126.679C97.0228 126.251 97.2302 125.881 97.501 125.568C97.7718 125.25 98.0998 125.005 98.4849 124.832C98.87 124.654 99.3016 124.565 99.7798 124.565C100.262 124.565 100.696 124.654 101.081 124.832C101.47 125.005 101.8 125.25 102.071 125.568C102.346 125.881 102.556 126.251 102.7 126.679C102.844 127.102 102.916 127.561 102.916 128.056V128.202C102.916 128.697 102.844 129.156 102.7 129.58C102.556 130.003 102.346 130.373 102.071 130.69C101.8 131.004 101.473 131.249 101.087 131.427C100.707 131.6 100.275 131.687 99.7925 131.687C99.3101 131.687 98.8763 131.6 98.4912 131.427C98.1061 131.249 97.776 131.004 97.501 130.69C97.2302 130.373 97.0228 130.003 96.8789 129.58C96.735 129.156 96.6631 128.697 96.6631 128.202ZM97.8374 128.056V128.202C97.8374 128.545 97.8776 128.869 97.958 129.173C98.0384 129.474 98.159 129.74 98.3198 129.973C98.4849 130.206 98.6901 130.39 98.9356 130.525C99.181 130.657 99.4666 130.722 99.7925 130.722C100.114 130.722 100.396 130.657 100.637 130.525C100.882 130.39 101.085 130.206 101.246 129.973C101.407 129.74 101.528 129.474 101.608 129.173C101.693 128.869 101.735 128.545 101.735 128.202V128.056C101.735 127.718 101.693 127.398 101.608 127.098C101.528 126.793 101.405 126.524 101.24 126.292C101.079 126.055 100.876 125.868 100.63 125.733C100.389 125.597 100.106 125.53 99.7798 125.53C99.4582 125.53 99.1746 125.597 98.9292 125.733C98.688 125.868 98.4849 126.055 98.3198 126.292C98.159 126.524 98.0384 126.793 97.958 127.098C97.8776 127.398 97.8374 127.718 97.8374 128.056ZM105.823 126.158V131.56H104.648V124.692H105.759L105.823 126.158ZM105.543 127.866L105.054 127.847C105.059 127.377 105.128 126.943 105.264 126.545C105.399 126.143 105.59 125.794 105.835 125.498C106.081 125.202 106.373 124.973 106.711 124.812C107.054 124.647 107.433 124.565 107.847 124.565C108.186 124.565 108.491 124.611 108.761 124.705C109.032 124.793 109.263 124.937 109.453 125.136C109.648 125.335 109.796 125.593 109.898 125.911C109.999 126.224 110.05 126.607 110.05 127.06V131.56H108.869V127.047C108.869 126.687 108.816 126.399 108.711 126.184C108.605 125.964 108.45 125.805 108.247 125.708C108.044 125.606 107.795 125.555 107.498 125.555C107.206 125.555 106.94 125.617 106.698 125.739C106.461 125.862 106.256 126.031 106.083 126.247C105.913 126.463 105.78 126.71 105.683 126.99C105.59 127.265 105.543 127.557 105.543 127.866ZM113.37 124.692V131.56H112.189V124.692H113.37ZM112.1 122.87C112.1 122.68 112.157 122.519 112.271 122.388C112.39 122.257 112.563 122.191 112.792 122.191C113.016 122.191 113.188 122.257 113.306 122.388C113.429 122.519 113.49 122.68 113.49 122.87C113.49 123.052 113.429 123.209 113.306 123.34C113.188 123.467 113.016 123.53 112.792 123.53C112.563 123.53 112.39 123.467 112.271 123.34C112.157 123.209 112.1 123.052 112.1 122.87ZM118.263 130.722C118.543 130.722 118.801 130.665 119.038 130.551C119.275 130.437 119.469 130.28 119.622 130.081C119.774 129.878 119.861 129.647 119.882 129.389H120.999C120.978 129.795 120.841 130.174 120.587 130.525C120.337 130.872 120.009 131.154 119.603 131.37C119.197 131.581 118.75 131.687 118.263 131.687C117.747 131.687 117.296 131.596 116.911 131.414C116.53 131.232 116.213 130.982 115.959 130.665C115.71 130.348 115.521 129.984 115.394 129.573C115.272 129.159 115.21 128.721 115.21 128.259V127.993C115.21 127.531 115.272 127.096 115.394 126.685C115.521 126.27 115.71 125.904 115.959 125.587C116.213 125.27 116.53 125.02 116.911 124.838C117.296 124.656 117.747 124.565 118.263 124.565C118.801 124.565 119.271 124.675 119.673 124.895C120.075 125.111 120.39 125.407 120.618 125.784C120.851 126.156 120.978 126.579 120.999 127.053H119.882C119.861 126.77 119.78 126.514 119.641 126.285C119.505 126.057 119.319 125.875 119.082 125.739C118.85 125.6 118.577 125.53 118.263 125.53C117.904 125.53 117.601 125.602 117.356 125.746C117.114 125.885 116.922 126.076 116.778 126.317C116.638 126.554 116.537 126.818 116.473 127.11C116.414 127.398 116.384 127.692 116.384 127.993V128.259C116.384 128.56 116.414 128.856 116.473 129.148C116.533 129.44 116.632 129.704 116.772 129.941C116.916 130.178 117.108 130.369 117.349 130.513C117.595 130.652 117.899 130.722 118.263 130.722ZM123.855 121.81V131.56H122.675V121.81H123.855ZM128.851 131.687C128.373 131.687 127.939 131.607 127.55 131.446C127.164 131.281 126.832 131.05 126.553 130.754C126.278 130.458 126.066 130.106 125.918 129.7C125.77 129.294 125.696 128.85 125.696 128.367V128.101C125.696 127.542 125.779 127.045 125.944 126.609C126.109 126.169 126.333 125.796 126.616 125.492C126.9 125.187 127.222 124.956 127.581 124.8C127.941 124.643 128.313 124.565 128.698 124.565C129.189 124.565 129.613 124.65 129.968 124.819C130.328 124.988 130.622 125.225 130.85 125.53C131.079 125.83 131.248 126.186 131.358 126.596C131.468 127.002 131.523 127.447 131.523 127.929V128.456H126.394V127.498H130.349V127.409C130.332 127.104 130.268 126.808 130.158 126.52C130.053 126.232 129.883 125.995 129.651 125.809C129.418 125.623 129.1 125.53 128.698 125.53C128.432 125.53 128.186 125.587 127.962 125.701C127.738 125.811 127.545 125.976 127.384 126.196C127.224 126.416 127.099 126.685 127.01 127.002C126.921 127.32 126.877 127.686 126.877 128.101V128.367C126.877 128.693 126.921 129 127.01 129.288C127.103 129.571 127.236 129.821 127.41 130.037C127.588 130.252 127.801 130.422 128.051 130.544C128.305 130.667 128.593 130.729 128.914 130.729C129.329 130.729 129.68 130.644 129.968 130.475C130.256 130.305 130.508 130.079 130.723 129.795L131.434 130.36C131.286 130.585 131.098 130.798 130.869 131.001C130.641 131.205 130.359 131.37 130.025 131.497C129.695 131.624 129.304 131.687 128.851 131.687ZM137.153 129.738C137.153 129.569 137.115 129.412 137.039 129.269C136.967 129.12 136.817 128.987 136.588 128.869C136.364 128.746 136.025 128.64 135.573 128.551C135.192 128.471 134.847 128.376 134.538 128.266C134.233 128.156 133.973 128.022 133.757 127.866C133.546 127.709 133.383 127.525 133.269 127.313C133.154 127.102 133.097 126.854 133.097 126.571C133.097 126.3 133.156 126.044 133.275 125.803C133.398 125.562 133.569 125.348 133.789 125.162C134.013 124.975 134.282 124.829 134.595 124.724C134.908 124.618 135.257 124.565 135.643 124.565C136.193 124.565 136.662 124.662 137.052 124.857C137.441 125.052 137.739 125.312 137.947 125.638C138.154 125.959 138.258 126.317 138.258 126.71H137.083C137.083 126.52 137.026 126.336 136.912 126.158C136.802 125.976 136.639 125.826 136.423 125.708C136.212 125.589 135.951 125.53 135.643 125.53C135.317 125.53 135.052 125.581 134.849 125.682C134.65 125.779 134.504 125.904 134.411 126.057C134.322 126.209 134.278 126.37 134.278 126.539C134.278 126.666 134.299 126.78 134.341 126.882C134.388 126.979 134.468 127.07 134.582 127.155C134.697 127.235 134.858 127.311 135.065 127.383C135.272 127.455 135.537 127.527 135.858 127.599C136.421 127.726 136.885 127.878 137.248 128.056C137.612 128.234 137.883 128.452 138.061 128.71C138.239 128.968 138.328 129.281 138.328 129.649C138.328 129.95 138.264 130.225 138.137 130.475C138.014 130.724 137.835 130.94 137.598 131.122C137.365 131.3 137.086 131.439 136.76 131.541C136.438 131.638 136.076 131.687 135.674 131.687C135.069 131.687 134.557 131.579 134.138 131.363C133.719 131.147 133.402 130.868 133.186 130.525C132.97 130.183 132.862 129.821 132.862 129.44H134.043C134.06 129.762 134.153 130.018 134.322 130.208C134.491 130.394 134.699 130.528 134.944 130.608C135.19 130.684 135.433 130.722 135.674 130.722C135.996 130.722 136.265 130.68 136.48 130.595C136.7 130.511 136.868 130.394 136.982 130.246C137.096 130.098 137.153 129.929 137.153 129.738Z" fill="white"/>
<path d="M44.4982 111.525L109.159 49.2287L116.571 56.9559L123.037 21.1548L86.6052 25.2562L94.5028 33.5072L89.5853 38.257" stroke="white" stroke-width="0.907743" stroke-miterlimit="10"/>
<path opacity="0.05" fill-rule="evenodd" clip-rule="evenodd" d="M115.782 25.7176C115.327 25.8786 114.902 26.1548 114.534 26.463C114.115 26.8061 113.74 27.2206 113.439 27.6926C113.158 28.1561 112.942 28.671 112.89 29.2237C112.834 29.7814 112.962 30.3406 113.257 30.8381L119.774 38.4076L121.565 28.4717C121.565 27.7843 121.377 27.0928 120.929 26.5577C120.524 26.0842 119.963 25.7499 119.371 25.5653C118.755 25.3747 118.099 25.3003 117.46 25.3425C116.884 25.3742 116.303 25.4826 115.78 25.7172L115.782 25.7176Z" fill="white"/>
<path opacity="0.05" fill-rule="evenodd" clip-rule="evenodd" d="M116.621 50.4868C117.227 50.1418 117.655 49.5435 117.887 48.8978L119.674 38.9871L110.922 43.8142C110.476 44.1601 110.16 44.6393 110.017 45.1914C109.877 45.7103 109.898 46.278 109.998 46.812C110.112 47.3588 110.322 47.8748 110.593 48.3521C110.83 48.7715 111.129 49.1801 111.502 49.4884C111.909 49.8926 112.418 50.1876 112.947 50.4164C113.532 50.6753 114.171 50.8424 114.816 50.8709C115.434 50.9107 116.076 50.8011 116.622 50.491L116.621 50.4868Z" fill="white"/>
<path opacity="0.05" fill-rule="evenodd" clip-rule="evenodd" d="M119.676 38.6934L111.766 32.6981C111.286 32.4502 110.722 32.3744 110.194 32.4845C109.683 32.5977 109.204 32.8781 108.805 33.2246C108.385 33.5753 108.024 34.0004 107.741 34.4735C107.483 34.8893 107.273 35.3595 107.166 35.8405C107.001 36.4145 106.952 37.0275 106.98 37.6224C107.01 38.2954 107.132 38.959 107.384 39.5824C107.609 40.157 107.981 40.7162 108.483 41.0897C109.026 41.4825 109.715 41.6225 110.388 41.5486L119.679 38.6899L119.676 38.6934Z" fill="white"/>
<path fill-rule="evenodd" clip-rule="evenodd" d="M123.782 27.0693C123.187 27.4184 122.752 27.9956 122.52 28.6413L120.729 38.5771L129.488 33.7614C129.929 33.3964 130.258 32.9196 130.39 32.3755C130.53 31.8389 130.515 31.2821 130.406 30.7483C130.291 30.2016 130.092 29.6834 129.81 29.2141C129.572 28.7966 129.273 28.388 128.908 28.081C128.5 27.6787 127.976 27.371 127.457 27.142C126.873 26.8773 126.242 26.7197 125.589 26.6837C124.969 26.6516 124.319 26.7656 123.78 27.069L123.782 27.0693Z" fill="white"/>
<path fill-rule="evenodd" clip-rule="evenodd" d="M118.836 49.071C118.828 49.7551 119.03 50.4691 119.466 51.002C119.864 51.4822 120.434 51.8102 121.028 51.9889C121.649 52.1887 122.299 52.2521 122.938 52.2157C123.503 52.1841 124.102 52.0888 124.623 51.852C125.073 51.6918 125.496 51.4133 125.864 51.1032C126.294 50.7542 126.66 50.3398 126.96 49.8679C127.249 49.4038 127.461 48.8801 127.512 48.3432C127.58 47.7776 127.445 47.2193 127.149 46.7376L120.625 39.1567L118.838 49.0675L118.836 49.071Z" fill="white"/>
<path fill-rule="evenodd" clip-rule="evenodd" d="M120.736 38.885L128.443 44.8077C129.049 45.1123 129.74 45.2188 130.387 45.0426C130.989 44.8661 131.524 44.4724 131.944 44.0139C132.39 43.5165 132.744 42.9366 133.014 42.3198C133.248 41.7721 133.417 41.1807 133.462 40.5851C133.523 40.0958 133.484 39.5807 133.393 39.102C133.278 38.5572 133.103 38.0354 132.824 37.5587C132.564 37.0913 132.22 36.6647 131.781 36.3803C131.319 36.0917 130.777 35.9682 130.232 36.0313L120.741 38.8899L120.736 38.885Z" fill="white"/>
<path d="M54.712 68.7694L37.1547 86.3267C35.9215 87.5599 35.9215 89.5585 37.1547 90.7891C38.3396 91.974 40.2466 92.0274 41.4951 90.9061L58.2896 75.8254C58.2896 75.8254 60.845 79.5072 59.5177 80.9387C58.5566 81.9736 51.9812 85.8411 48.4138 87.9057C47.1297 88.6482 46.6542 90.2654 47.328 91.5876C48.0196 92.9428 49.6698 93.492 51.0378 92.8233L63.1995 86.8709C63.1995 86.8709 67.4077 85.5868 66.9831 80.1225C66.5584 74.6583 64.9387 74.0887 67.2907 71.5333C69.6427 68.9779 74.5527 64.2714 74.5527 64.2714C74.5527 64.2714 76.7013 62.5322 80.6882 62.6364C84.6751 62.7407 88.5629 63.2492 92.1405 60.081C94.5891 57.9121 98.2379 54.2557 100.295 52.1656C101.162 51.2858 101.157 49.8721 100.282 48.9974C99.4075 48.1227 97.9912 48.1176 97.1115 48.9898C94.7035 51.3723 90.1267 55.7127 87.6399 56.8086C84.1641 58.3418 77.3115 55.8881 72.9152 50.5713C68.5189 45.2546 52.0524 35.9432 28.123 48.9313C28.123 48.9313 38.0421 53.3276 32.5194 61.7134C36.9157 64.1671 39.9847 65.1893 38.1438 71.2231C38.1438 71.2231 45.0981 73.1657 43.0512 80.12" stroke="white" stroke-width="0.907743" stroke-miterlimit="10"/>
<path opacity="0.1" d="M32.7638 61.3573C32.7638 61.3573 42.8227 55.148 54.1377 57.1135" stroke="white" stroke-width="0.907743" stroke-miterlimit="10"/>
<path opacity="0.1" d="M38.1466 71.2228C38.1466 71.2228 44.2618 67.1876 51.6814 65.9111" stroke="white" stroke-width="0.907743" stroke-miterlimit="10"/>
<path d="M72.5076 50.406C72.3245 50.406 64.165 49.905 59.7 49.6304C58.093 49.5313 56.6793 50.6882 56.4606 52.285L54.8435 64.0475C54.6528 65.4282 55.5732 66.7173 56.9412 66.9894C58.4109 67.2793 59.8271 66.2851 60.0534 64.8027L61.4138 55.8575L66.4839 56.6178L62.5529 60.1038" stroke="white" stroke-width="0.907743" stroke-miterlimit="10"/>
<path d="M84.0762 53.6529C87.8257 53.6529 90.8652 50.6134 90.8652 46.8639C90.8652 43.1145 87.8257 40.075 84.0762 40.075C80.3268 40.075 77.2872 43.1145 77.2872 46.8639C77.2872 50.6134 80.3268 53.6529 84.0762 53.6529Z" stroke="white" stroke-width="0.907743" stroke-miterlimit="10"/>
<path opacity="0.4" d="M102.762 62.2951C102.882 61.9266 103.403 61.9266 103.523 62.2951L104.4 64.9938C104.454 65.1586 104.607 65.2702 104.78 65.2702H107.618C108.005 65.2702 108.167 65.766 107.853 65.9938L105.557 67.6617C105.417 67.7635 105.359 67.9441 105.412 68.1089L106.289 70.8075C106.409 71.1761 105.987 71.4825 105.673 71.2548L103.378 69.5869C103.238 69.485 103.048 69.485 102.908 69.5869L100.612 71.2548C100.298 71.4825 99.8767 71.1761 99.9964 70.8075L100.873 68.1089C100.927 67.9441 100.868 67.7635 100.728 67.6617L98.4323 65.9938C98.1188 65.766 98.2799 65.2702 98.6674 65.2702H101.505C101.678 65.2702 101.832 65.1586 101.885 64.9938L102.762 62.2951Z" fill="white"/>
<path opacity="0.2" d="M91.4208 71.8072C91.4906 71.5923 91.7948 71.5923 91.8646 71.8072L92.3761 73.3815C92.4074 73.4776 92.4969 73.5427 92.598 73.5427H94.2533C94.4793 73.5427 94.5733 73.832 94.3904 73.9648L93.0513 74.9377C92.9695 74.9972 92.9353 75.1025 92.9665 75.1986L93.478 76.7728C93.5479 76.9878 93.3018 77.1666 93.119 77.0337L91.7798 76.0608C91.6981 76.0014 91.5873 76.0014 91.5056 76.0608L90.1664 77.0337C89.9836 77.1666 89.7375 76.9878 89.8074 76.7728L90.3189 75.1986C90.3501 75.1025 90.3159 74.9972 90.2341 74.9377L88.895 73.9648C88.7121 73.832 88.8061 73.5427 89.0321 73.5427H90.6874C90.7885 73.5427 90.8781 73.4776 90.9093 73.3815L91.4208 71.8072Z" fill="white"/>
<path opacity="0.1" d="M102.484 75.6121C102.534 75.4586 102.751 75.4586 102.801 75.6121L103.167 76.7366C103.189 76.8052 103.253 76.8517 103.325 76.8517H104.507C104.669 76.8517 104.736 77.0583 104.605 77.1532L103.649 77.8482C103.59 77.8906 103.566 77.9658 103.588 78.0345L103.954 79.159C104.004 79.3125 103.828 79.4402 103.697 79.3453L102.741 78.6504C102.682 78.6079 102.603 78.6079 102.545 78.6504L101.588 79.3453C101.458 79.4402 101.282 79.3125 101.332 79.159L101.697 78.0345C101.719 77.9658 101.695 77.8906 101.637 77.8482L100.68 77.1532C100.549 77.0583 100.617 76.8517 100.778 76.8517H101.96C102.033 76.8517 102.097 76.8052 102.119 76.7366L102.484 75.6121Z" fill="white"/>
<defs>
<filter id="filter0_d_63_1602" x="8.34465e-06" y="0" width="169.748" height="148.87" filterUnits="userSpaceOnUse" color-interpolation-filters="sRGB">
<feFlood flood-opacity="0" result="BackgroundImageFix"/>
<feColorMatrix in="SourceAlpha" type="matrix" values="0 0 0 0 0 0 0 0 0 0 0 0 0 0 0 0 0 0 127 0" result="hardAlpha"/>
<feOffset dy="3.63097"/>
<feGaussianBlur stdDeviation="1.81549"/>
<feComposite in2="hardAlpha" operator="out"/>
<feColorMatrix type="matrix" values="0 0 0 0 0 0 0 0 0 0 0 0 0 0 0 0 0 0 0.25 0"/>
<feBlend mode="normal" in2="BackgroundImageFix" result="effect1_dropShadow_63_1602"/>
<feBlend mode="normal" in="SourceGraphic" in2="effect1_dropShadow_63_1602" result="shape"/>
</filter>
<linearGradient id="paint0_linear_63_1602" x1="3.63098" y1="70.804" x2="166.117" y2="70.804" gradientUnits="userSpaceOnUse">
<stop stop-color="#08A03F"/>
<stop offset="0.356716" stop-color="#09C74E"/>
<stop offset="1" stop-color="#09F519"/>
</linearGradient>
</defs>
</svg>
