<svg width="170" height="149" viewBox="0 0 170 149" fill="none" xmlns="http://www.w3.org/2000/svg">
<g opacity="0.2" filter="url(#filter0_d_63_1572)">
<rect x="3.63086" width="162.486" height="141.608" rx="16.8" fill="url(#paint0_linear_63_1572)"/>
</g>
<path d="M45.1348 125.767L46.9692 119.318H47.8579L47.3438 121.825L45.3696 128.56H44.4873L45.1348 125.767ZM43.2368 119.318L44.6968 125.64L45.1348 128.56H44.2588L42.0181 119.318H43.2368ZM50.2319 125.634L51.6602 119.318H52.8853L50.6509 128.56H49.7749L50.2319 125.634ZM47.9912 119.318L49.7749 125.767L50.4224 128.56H49.54L47.6357 121.825L47.1152 119.318H47.9912ZM58.1599 127.386V123.85C58.1599 123.579 58.1049 123.344 57.9949 123.146C57.8891 122.942 57.7283 122.786 57.5124 122.676C57.2966 122.566 57.03 122.511 56.7126 122.511C56.4164 122.511 56.1562 122.562 55.9319 122.663C55.7118 122.765 55.5383 122.898 55.4114 123.063C55.2886 123.228 55.2273 123.406 55.2273 123.596H54.053C54.053 123.351 54.1164 123.107 54.2434 122.866C54.3704 122.625 54.5523 122.407 54.7893 122.212C55.0305 122.014 55.3183 121.857 55.6526 121.743C55.9911 121.624 56.3677 121.565 56.7825 121.565C57.2818 121.565 57.7219 121.65 58.1028 121.819C58.4879 121.988 58.7883 122.244 59.0041 122.587C59.2242 122.925 59.3342 123.351 59.3342 123.863V127.062C59.3342 127.291 59.3533 127.534 59.3913 127.792C59.4337 128.05 59.495 128.272 59.5754 128.458V128.56H58.3503C58.2911 128.425 58.2445 128.245 58.2107 128.021C58.1768 127.792 58.1599 127.58 58.1599 127.386ZM58.363 124.396L58.3757 125.221H57.1887C56.8544 125.221 56.5561 125.249 56.2937 125.304C56.0313 125.354 55.8113 125.433 55.6335 125.539C55.4558 125.644 55.3204 125.778 55.2273 125.938C55.1342 126.095 55.0876 126.279 55.0876 126.491C55.0876 126.707 55.1363 126.903 55.2336 127.081C55.331 127.259 55.477 127.401 55.6716 127.506C55.8705 127.608 56.1138 127.659 56.4016 127.659C56.7613 127.659 57.0787 127.583 57.3538 127.43C57.6288 127.278 57.8468 127.092 58.0076 126.872C58.1726 126.652 58.2615 126.438 58.2742 126.23L58.7756 126.795C58.746 126.973 58.6656 127.17 58.5344 127.386C58.4032 127.602 58.2276 127.809 58.0076 128.008C57.7917 128.202 57.5336 128.365 57.2331 128.497C56.9369 128.624 56.6026 128.687 56.2302 128.687C55.7647 128.687 55.3564 128.596 55.0051 128.414C54.6581 128.232 54.3873 127.989 54.1926 127.684C54.0022 127.375 53.907 127.03 53.907 126.649C53.907 126.281 53.9789 125.958 54.1228 125.678C54.2667 125.395 54.474 125.16 54.7449 124.974C55.0157 124.783 55.3415 124.639 55.7224 124.542C56.1033 124.445 56.5286 124.396 56.9983 124.396H58.363ZM62.7173 118.81V128.56H61.5366V118.81H62.7173ZM66.1384 118.81V128.56H64.9577V118.81H66.1384ZM79.0617 123.647V124.231C79.0617 124.925 78.975 125.547 78.8015 126.097C78.628 126.647 78.3783 127.115 78.0524 127.5C77.7266 127.885 77.3352 128.179 76.8781 128.382C76.4253 128.585 75.9175 128.687 75.3547 128.687C74.8088 128.687 74.3073 128.585 73.8503 128.382C73.3975 128.179 73.0039 127.885 72.6696 127.5C72.3396 127.115 72.0835 126.647 71.9016 126.097C71.7196 125.547 71.6286 124.925 71.6286 124.231V123.647C71.6286 122.953 71.7175 122.333 71.8952 121.787C72.0772 121.237 72.3332 120.769 72.6633 120.384C72.9934 119.995 73.3848 119.699 73.8376 119.496C74.2946 119.292 74.7961 119.191 75.342 119.191C75.9048 119.191 76.4126 119.292 76.8654 119.496C77.3225 119.699 77.7139 119.995 78.0397 120.384C78.3698 120.769 78.6216 121.237 78.7951 121.787C78.9729 122.333 79.0617 122.953 79.0617 123.647ZM77.8493 124.231V123.634C77.8493 123.084 77.7922 122.597 77.6779 122.174C77.5679 121.751 77.405 121.396 77.1892 121.108C76.9733 120.82 76.7089 120.602 76.3957 120.454C76.0868 120.306 75.7355 120.232 75.342 120.232C74.9611 120.232 74.6162 120.306 74.3073 120.454C74.0026 120.602 73.7403 120.82 73.5202 121.108C73.3044 121.396 73.1372 121.751 73.0187 122.174C72.9003 122.597 72.841 123.084 72.841 123.634V124.231C72.841 124.785 72.9003 125.276 73.0187 125.704C73.1372 126.127 73.3065 126.484 73.5266 126.776C73.7508 127.064 74.0153 127.282 74.32 127.43C74.6289 127.578 74.9738 127.652 75.3547 127.652C75.7525 127.652 76.1058 127.578 76.4147 127.43C76.7237 127.282 76.9839 127.064 77.1955 126.776C77.4113 126.484 77.5743 126.127 77.6843 125.704C77.7943 125.276 77.8493 124.785 77.8493 124.231ZM82.7304 128.56H81.5561V120.968C81.5561 120.473 81.645 120.056 81.8227 119.718C82.0047 119.375 82.2649 119.117 82.6035 118.943C82.942 118.766 83.344 118.677 83.8095 118.677C83.9449 118.677 84.0803 118.685 84.2158 118.702C84.3554 118.719 84.4908 118.744 84.622 118.778L84.5585 119.737C84.4697 119.716 84.3681 119.701 84.2538 119.692C84.1438 119.684 84.0338 119.68 83.9238 119.68C83.6741 119.68 83.4583 119.73 83.2763 119.832C83.0986 119.929 82.9632 120.073 82.8701 120.264C82.777 120.454 82.7304 120.689 82.7304 120.968V128.56ZM84.1904 121.692V122.593H80.4706V121.692H84.1904ZM95.457 123.292V124.288H90.455V123.292H95.457ZM90.6454 119.318V128.56H89.4203V119.318H90.6454ZM96.5234 119.318V128.56H95.3046V119.318H96.5234ZM98.4718 125.202V125.056C98.4718 124.561 98.5438 124.102 98.6877 123.679C98.8315 123.251 99.0389 122.881 99.3097 122.568C99.5806 122.25 99.9085 122.005 100.294 121.832C100.679 121.654 101.11 121.565 101.589 121.565C102.071 121.565 102.505 121.654 102.89 121.832C103.279 122.005 103.609 122.25 103.88 122.568C104.155 122.881 104.365 123.251 104.508 123.679C104.652 124.102 104.724 124.561 104.724 125.056V125.202C104.724 125.697 104.652 126.156 104.508 126.58C104.365 127.003 104.155 127.373 103.88 127.69C103.609 128.004 103.281 128.249 102.896 128.427C102.515 128.6 102.084 128.687 101.601 128.687C101.119 128.687 100.685 128.6 100.3 128.427C99.9149 128.249 99.5848 128.004 99.3097 127.69C99.0389 127.373 98.8315 127.003 98.6877 126.58C98.5438 126.156 98.4718 125.697 98.4718 125.202ZM99.6462 125.056V125.202C99.6462 125.545 99.6864 125.869 99.7668 126.173C99.8472 126.474 99.9678 126.74 100.129 126.973C100.294 127.206 100.499 127.39 100.744 127.525C100.99 127.657 101.275 127.722 101.601 127.722C101.923 127.722 102.204 127.657 102.445 127.525C102.691 127.39 102.894 127.206 103.055 126.973C103.216 126.74 103.336 126.474 103.417 126.173C103.501 125.869 103.544 125.545 103.544 125.202V125.056C103.544 124.718 103.501 124.398 103.417 124.098C103.336 123.793 103.214 123.524 103.048 123.292C102.888 123.055 102.685 122.868 102.439 122.733C102.198 122.597 101.914 122.53 101.589 122.53C101.267 122.53 100.983 122.597 100.738 122.733C100.497 122.868 100.294 123.055 100.129 123.292C99.9678 123.524 99.8472 123.793 99.7668 124.098C99.6864 124.398 99.6462 124.718 99.6462 125.056ZM107.631 123.012V131.201H106.451V121.692H107.53L107.631 123.012ZM112.259 125.069V125.202C112.259 125.701 112.199 126.165 112.081 126.592C111.962 127.015 111.789 127.384 111.56 127.697C111.336 128.01 111.059 128.253 110.729 128.427C110.399 128.6 110.02 128.687 109.593 128.687C109.157 128.687 108.772 128.615 108.437 128.471C108.103 128.327 107.82 128.118 107.587 127.843C107.354 127.568 107.168 127.238 107.028 126.853C106.893 126.467 106.8 126.034 106.749 125.551V124.84C106.8 124.333 106.895 123.878 107.035 123.476C107.174 123.074 107.358 122.731 107.587 122.447C107.82 122.16 108.101 121.942 108.431 121.793C108.761 121.641 109.142 121.565 109.574 121.565C110.005 121.565 110.388 121.65 110.723 121.819C111.057 121.984 111.338 122.221 111.567 122.53C111.795 122.839 111.967 123.209 112.081 123.641C112.199 124.068 112.259 124.544 112.259 125.069ZM111.078 125.202V125.069C111.078 124.726 111.042 124.404 110.97 124.104C110.898 123.799 110.786 123.533 110.634 123.304C110.486 123.071 110.295 122.889 110.062 122.758C109.83 122.623 109.552 122.555 109.231 122.555C108.935 122.555 108.676 122.606 108.456 122.708C108.241 122.809 108.057 122.947 107.904 123.12C107.752 123.289 107.627 123.484 107.53 123.704C107.437 123.92 107.367 124.144 107.32 124.377V126.021C107.405 126.317 107.523 126.597 107.676 126.859C107.828 127.117 108.031 127.326 108.285 127.487C108.539 127.644 108.858 127.722 109.244 127.722C109.561 127.722 109.834 127.657 110.062 127.525C110.295 127.39 110.486 127.206 110.634 126.973C110.786 126.74 110.898 126.474 110.97 126.173C111.042 125.869 111.078 125.545 111.078 125.202ZM116.867 128.687C116.389 128.687 115.955 128.607 115.566 128.446C115.18 128.281 114.848 128.05 114.569 127.754C114.294 127.458 114.082 127.106 113.934 126.7C113.786 126.294 113.712 125.85 113.712 125.367V125.101C113.712 124.542 113.795 124.045 113.96 123.609C114.125 123.169 114.349 122.796 114.632 122.492C114.916 122.187 115.238 121.956 115.597 121.8C115.957 121.643 116.329 121.565 116.714 121.565C117.205 121.565 117.629 121.65 117.984 121.819C118.344 121.988 118.638 122.225 118.866 122.53C119.095 122.83 119.264 123.186 119.374 123.596C119.484 124.002 119.539 124.447 119.539 124.929V125.456H114.41V124.498H118.365V124.409C118.348 124.104 118.284 123.808 118.174 123.52C118.069 123.232 117.899 122.995 117.667 122.809C117.434 122.623 117.117 122.53 116.714 122.53C116.448 122.53 116.202 122.587 115.978 122.701C115.754 122.811 115.561 122.976 115.401 123.196C115.24 123.416 115.115 123.685 115.026 124.002C114.937 124.32 114.893 124.686 114.893 125.101V125.367C114.893 125.693 114.937 126 115.026 126.288C115.119 126.571 115.252 126.821 115.426 127.037C115.604 127.252 115.817 127.422 116.067 127.544C116.321 127.667 116.609 127.729 116.93 127.729C117.345 127.729 117.696 127.644 117.984 127.475C118.272 127.305 118.524 127.079 118.739 126.795L119.45 127.36C119.302 127.585 119.114 127.798 118.885 128.001C118.657 128.205 118.375 128.37 118.041 128.497C117.711 128.624 117.32 128.687 116.867 128.687Z" fill="white"/>
<path d="M105.457 64.3762V14H45.6311V110.828M105.457 113.5V71.0698M120.159 62.4076L121.222 58.4391C121.816 58.9653 122.3 59.5438 122.609 60.0935C123.206 61.1616 123.216 61.8238 122.876 62.439C122.536 63.0542 121.42 64.1092 118.342 64.7348C115.264 65.3631 110.418 65.4678 103.552 64.473C99.5517 63.8107 98.6748 69.8708 102.698 70.3682C110.004 71.4284 115.428 71.4075 119.53 70.5724C123.632 69.7373 126.609 67.9965 128.088 65.3238C129.567 62.6511 129.125 59.5385 127.813 57.1904C123.402 50.3764 113.847 48.9497 105.95 48.1146M107.159 110.828L113.434 87.4151L113.457 87.4255L117.565 71.4389M115.122 32.5259C111.892 32.6568 108.973 34.8609 108.093 38.1462C107.004 42.2142 109.418 46.3555 113.46 47.4393C117.528 48.5282 121.698 46.1513 122.79 42.0833C123.873 38.0415 121.457 33.8714 117.389 32.7798C116.63 32.5756 115.868 32.4945 115.122 32.5259Z" stroke="white" stroke-width="0.9" stroke-linecap="round" stroke-linejoin="round"/>
<path opacity="0.2" d="M46.1543 26.272H68.4157" stroke="white" stroke-width="0.543308" stroke-linecap="round" stroke-linejoin="round"/>
<path opacity="0.2" d="M57.6465 26.4526V37.0441" stroke="white" stroke-width="0.543308" stroke-linecap="round" stroke-linejoin="round"/>
<path opacity="0.2" d="M52.0996 36.9944H74.361" stroke="white" stroke-width="0.543308" stroke-linecap="round" stroke-linejoin="round"/>
<path opacity="0.2" d="M83.2715 94H105.533" stroke="white" stroke-width="0.543308" stroke-linecap="round" stroke-linejoin="round"/>
<path opacity="0.2" d="M93.8105 94.5422V105.136" stroke="white" stroke-width="0.543308" stroke-linecap="round" stroke-linejoin="round"/>
<path fill-rule="evenodd" clip-rule="evenodd" d="M64.4556 71.0568C64.6948 71.4764 65.042 71.8451 65.4106 72.153C65.8225 72.5041 66.2971 72.8002 66.8148 73.012C67.3208 73.2062 67.866 73.3278 68.419 73.2807C68.978 73.2376 69.5055 73.012 69.9429 72.6335L76.2362 64.8772H66.1402C65.4636 64.9988 64.8164 65.3067 64.3693 65.8421C63.9751 66.3245 63.7456 66.9364 63.6692 67.5522C63.5907 68.1915 63.6339 68.8505 63.7888 69.4722C63.9221 70.033 64.132 70.5861 64.4556 71.0587V71.0568Z" fill="white"/>
<path fill-rule="evenodd" clip-rule="evenodd" d="M88.6852 65.8401C88.2381 65.3047 87.5732 64.989 86.8966 64.8752H76.8262L83.1293 72.6316C83.549 73.0101 84.0765 73.2356 84.6452 73.2787C85.1806 73.3239 85.7356 73.2023 86.2436 73.0101C86.7613 72.8002 87.232 72.5021 87.6536 72.1511C88.0243 71.8432 88.3734 71.4765 88.6107 71.0548C88.9362 70.5822 89.1363 70.0291 89.2677 69.4682C89.4187 68.8466 89.4697 68.1876 89.3834 67.5483C89.3128 66.9325 89.0912 66.3206 88.6891 65.8382L88.6852 65.8401Z" fill="white"/>
<path fill-rule="evenodd" clip-rule="evenodd" d="M76.5357 64.9263L72.0388 73.775C71.88 74.2907 71.9055 74.8595 72.1075 75.3596C72.3095 75.842 72.6703 76.2636 73.0822 76.5951C73.5019 76.9461 73.9843 77.2266 74.5001 77.4207C74.9551 77.6011 75.4552 77.7247 75.9474 77.7443C76.5416 77.8051 77.1535 77.7443 77.734 77.611C78.391 77.4619 79.0225 77.2246 79.5912 76.8657C80.1168 76.5421 80.6012 76.0773 80.8797 75.5164C81.1699 74.9124 81.1856 74.2103 80.9934 73.5612L76.5318 64.9243L76.5357 64.9263Z" fill="white"/>
<path fill-rule="evenodd" clip-rule="evenodd" d="M64.3706 62.9492C64.8197 63.4728 65.4649 63.7984 66.1415 63.9121H76.2375L69.9441 56.146C69.5068 55.7773 68.9793 55.538 68.4203 55.5047C67.8673 55.4615 67.3221 55.5753 66.8161 55.7773C66.2984 55.9871 65.8238 56.2754 65.4119 56.6363C65.0433 56.9442 64.6942 57.3109 64.4569 57.7247C64.1333 58.1973 63.9234 58.768 63.7901 59.3191C63.6332 59.9408 63.59 60.5899 63.6705 61.2391C63.7489 61.8549 63.9764 62.4746 64.3706 62.9512V62.9492Z" fill="white"/>
<path fill-rule="evenodd" clip-rule="evenodd" d="M86.9006 63.9122C87.5752 63.7985 88.242 63.473 88.6891 62.9493C89.0912 62.4728 89.3128 61.853 89.3834 61.2373C89.4697 60.5901 89.4167 59.939 89.2677 59.3173C89.1363 58.7662 88.9362 58.1936 88.6107 57.7229C88.3734 57.3091 88.0243 56.9423 87.6536 56.6344C87.234 56.2736 86.7613 55.9873 86.2436 55.7755C85.7356 55.5735 85.1826 55.4578 84.6453 55.5029C84.0765 55.5362 83.5509 55.7676 83.1293 56.1442L76.8262 63.9103H86.8966L86.9006 63.9122Z" fill="white"/>
<path fill-rule="evenodd" clip-rule="evenodd" d="M76.5396 63.8495L81.0012 55.2146C81.1934 54.5635 81.1758 53.8653 80.8875 53.2593C80.607 52.6984 80.1246 52.2415 79.599 51.9101C79.0303 51.559 78.3968 51.3139 77.7418 51.157C77.1613 51.0236 76.5494 50.9628 75.9552 51.0236C75.463 51.0511 74.9629 51.1805 74.5079 51.3551C73.9921 51.5649 73.5097 51.8297 73.09 52.1885C72.6762 52.5278 72.3173 52.9416 72.1153 53.4241C71.9133 53.93 71.8878 54.485 72.0467 55.0106L76.5436 63.8436L76.5396 63.8495Z" fill="white"/>
<defs>
<filter id="filter0_d_63_1572" x="-0.000113726" y="0" width="169.748" height="148.87" filterUnits="userSpaceOnUse" color-interpolation-filters="sRGB">
<feFlood flood-opacity="0" result="BackgroundImageFix"/>
<feColorMatrix in="SourceAlpha" type="matrix" values="0 0 0 0 0 0 0 0 0 0 0 0 0 0 0 0 0 0 127 0" result="hardAlpha"/>
<feOffset dy="3.63097"/>
<feGaussianBlur stdDeviation="1.81549"/>
<feComposite in2="hardAlpha" operator="out"/>
<feColorMatrix type="matrix" values="0 0 0 0 0 0 0 0 0 0 0 0 0 0 0 0 0 0 0.25 0"/>
<feBlend mode="normal" in2="BackgroundImageFix" result="effect1_dropShadow_63_1572"/>
<feBlend mode="normal" in="SourceGraphic" in2="effect1_dropShadow_63_1572" result="shape"/>
</filter>
<linearGradient id="paint0_linear_63_1572" x1="3.63086" y1="70.804" x2="166.117" y2="70.804" gradientUnits="userSpaceOnUse">
<stop stop-color="#08A03F"/>
<stop offset="0.356716" stop-color="#09C74E"/>
<stop offset="1" stop-color="#09F519"/>
</linearGradient>
</defs>
</svg>
