<svg width="170" height="149" viewBox="0 0 170 149" fill="none" xmlns="http://www.w3.org/2000/svg">
<g opacity="0.2" filter="url(#filter0_d_63_1636)">
<rect x="3.63086" width="162.486" height="141.608" rx="17.1" fill="url(#paint0_linear_63_1636)"/>
</g>
<path d="M31.1355 125.767L32.97 119.318H33.8586L33.3445 121.825L31.3704 128.56H30.488L31.1355 125.767ZM29.2375 119.318L30.6975 125.64L31.1355 128.56H30.2595L28.0188 119.318H29.2375ZM36.2327 125.634L37.6609 119.318H38.886L36.6516 128.56H35.7756L36.2327 125.634ZM33.9919 119.318L35.7756 125.767L36.4231 128.56H35.5408L33.6365 121.825L33.116 119.318H33.9919ZM42.9736 128.687C42.4954 128.687 42.0617 128.607 41.6724 128.446C41.2873 128.281 40.9551 128.05 40.6758 127.754C40.4007 127.458 40.1891 127.106 40.041 126.7C39.8929 126.294 39.8188 125.85 39.8188 125.367V125.101C39.8188 124.542 39.9014 124.045 40.0664 123.609C40.2314 123.169 40.4557 122.796 40.7392 122.492C41.0228 122.187 41.3444 121.956 41.7041 121.8C42.0638 121.643 42.4362 121.565 42.8213 121.565C43.3122 121.565 43.7353 121.65 44.0908 121.819C44.4505 121.988 44.7446 122.225 44.9731 122.53C45.2017 122.83 45.3709 123.186 45.4809 123.596C45.591 124.002 45.646 124.447 45.646 124.929V125.456H40.5171V124.498H44.4717V124.409C44.4547 124.104 44.3913 123.808 44.2812 123.52C44.1754 123.232 44.0062 122.995 43.7734 122.809C43.5407 122.623 43.2233 122.53 42.8213 122.53C42.5547 122.53 42.3092 122.587 42.085 122.701C41.8607 122.811 41.6681 122.976 41.5073 123.196C41.3465 123.416 41.2217 123.685 41.1328 124.002C41.0439 124.32 40.9995 124.686 40.9995 125.101V125.367C40.9995 125.693 41.0439 126 41.1328 126.288C41.2259 126.571 41.3592 126.821 41.5327 127.037C41.7104 127.252 41.9241 127.422 42.1738 127.544C42.4277 127.667 42.7155 127.729 43.0371 127.729C43.4518 127.729 43.8031 127.644 44.0908 127.475C44.3786 127.305 44.6304 127.079 44.8462 126.795L45.5571 127.36C45.409 127.585 45.2207 127.798 44.9922 128.001C44.7637 128.205 44.4822 128.37 44.1479 128.497C43.8179 128.624 43.4264 128.687 42.9736 128.687ZM54.3608 120.137L51.3012 128.56H50.0508L53.5737 119.318H54.3799L54.3608 120.137ZM56.9253 128.56L53.8593 120.137L53.8403 119.318H54.6465L58.1821 128.56H56.9253ZM56.7666 125.139V126.142H51.5742V125.139H56.7666ZM60.6765 122.771V128.56H59.5022V121.692H60.6447L60.6765 122.771ZM62.822 121.654L62.8156 122.746C62.7183 122.724 62.6252 122.712 62.5363 122.708C62.4517 122.699 62.3544 122.695 62.2443 122.695C61.9735 122.695 61.7344 122.737 61.5271 122.822C61.3197 122.906 61.1441 123.025 61.0002 123.177C60.8563 123.33 60.7421 123.512 60.6574 123.723C60.577 123.931 60.5241 124.159 60.4987 124.409L60.1687 124.599C60.1687 124.184 60.2089 123.795 60.2893 123.431C60.3739 123.067 60.503 122.746 60.6765 122.466C60.85 122.183 61.07 121.963 61.3366 121.806C61.6075 121.645 61.9291 121.565 62.3015 121.565C62.3861 121.565 62.4834 121.576 62.5935 121.597C62.7035 121.614 62.7797 121.633 62.822 121.654ZM66.8906 128.687C66.4124 128.687 65.9786 128.607 65.5893 128.446C65.2042 128.281 64.872 128.05 64.5927 127.754C64.3177 127.458 64.1061 127.106 63.958 126.7C63.8098 126.294 63.7358 125.85 63.7358 125.367V125.101C63.7358 124.542 63.8183 124.045 63.9833 123.609C64.1484 123.169 64.3727 122.796 64.6562 122.492C64.9397 122.187 65.2613 121.956 65.621 121.8C65.9807 121.643 66.3531 121.565 66.7382 121.565C67.2291 121.565 67.6523 121.65 68.0078 121.819C68.3675 121.988 68.6616 122.225 68.8901 122.53C69.1186 122.83 69.2879 123.186 69.3979 123.596C69.5079 124.002 69.5629 124.447 69.5629 124.929V125.456H64.434V124.498H68.3886V124.409C68.3717 124.104 68.3082 123.808 68.1982 123.52C68.0924 123.232 67.9231 122.995 67.6904 122.809C67.4576 122.623 67.1402 122.53 66.7382 122.53C66.4716 122.53 66.2262 122.587 66.0019 122.701C65.7776 122.811 65.5851 122.976 65.4243 123.196C65.2635 123.416 65.1386 123.685 65.0498 124.002C64.9609 124.32 64.9165 124.686 64.9165 125.101V125.367C64.9165 125.693 64.9609 126 65.0498 126.288C65.1429 126.571 65.2762 126.821 65.4497 127.037C65.6274 127.252 65.8411 127.422 66.0908 127.544C66.3447 127.667 66.6324 127.729 66.9541 127.729C67.3688 127.729 67.72 127.644 68.0078 127.475C68.2955 127.305 68.5473 127.079 68.7631 126.795L69.4741 127.36C69.326 127.585 69.1376 127.798 68.9091 128.001C68.6806 128.205 68.3992 128.37 68.0649 128.497C67.7348 128.624 67.3434 128.687 66.8906 128.687ZM80.436 125.621H81.6547C81.5912 126.205 81.4241 126.728 81.1533 127.189C80.8824 127.65 80.4994 128.016 80.0043 128.287C79.5092 128.554 78.8914 128.687 78.1508 128.687C77.6091 128.687 77.1161 128.585 76.6718 128.382C76.2317 128.179 75.853 127.891 75.5356 127.519C75.2182 127.142 74.9728 126.692 74.7992 126.167C74.63 125.638 74.5453 125.05 74.5453 124.402V123.482C74.5453 122.834 74.63 122.248 74.7992 121.724C74.9728 121.195 75.2203 120.742 75.5419 120.365C75.8678 119.989 76.2592 119.699 76.7162 119.496C77.1733 119.292 77.6874 119.191 78.2587 119.191C78.957 119.191 79.5473 119.322 80.0297 119.584C80.5121 119.847 80.8867 120.211 81.1533 120.676C81.4241 121.138 81.5912 121.673 81.6547 122.282H80.436C80.3767 121.851 80.2667 121.48 80.1059 121.171C79.9451 120.858 79.7166 120.617 79.4203 120.448C79.1241 120.278 78.7369 120.194 78.2587 120.194C77.8482 120.194 77.4864 120.272 77.1733 120.429C76.8644 120.585 76.6041 120.807 76.3925 121.095C76.1852 121.383 76.0286 121.728 75.9228 122.13C75.817 122.532 75.7641 122.978 75.7641 123.469V124.402C75.7641 124.855 75.8106 125.28 75.9037 125.678C76.0011 126.076 76.1471 126.425 76.3417 126.726C76.5364 127.026 76.7839 127.263 77.0844 127.437C77.3849 127.606 77.7403 127.69 78.1508 127.69C78.6713 127.69 79.086 127.608 79.395 127.443C79.7039 127.278 79.9366 127.041 80.0932 126.732C80.254 126.423 80.3683 126.053 80.436 125.621ZM87.4562 127.386V123.85C87.4562 123.579 87.4012 123.344 87.2912 123.146C87.1854 122.942 87.0246 122.786 86.8088 122.676C86.5929 122.566 86.3263 122.511 86.009 122.511C85.7127 122.511 85.4525 122.562 85.2282 122.663C85.0081 122.765 84.8346 122.898 84.7077 123.063C84.585 123.228 84.5236 123.406 84.5236 123.596H83.3493C83.3493 123.351 83.4128 123.107 83.5397 122.866C83.6667 122.625 83.8486 122.407 84.0856 122.212C84.3268 122.014 84.6146 121.857 84.9489 121.743C85.2874 121.624 85.6641 121.565 86.0788 121.565C86.5781 121.565 87.0182 121.65 87.3991 121.819C87.7842 121.988 88.0846 122.244 88.3005 122.587C88.5205 122.925 88.6305 123.351 88.6305 123.863V127.062C88.6305 127.291 88.6496 127.534 88.6877 127.792C88.73 128.05 88.7913 128.272 88.8717 128.458V128.56H87.6467C87.5874 128.425 87.5409 128.245 87.507 128.021C87.4731 127.792 87.4562 127.58 87.4562 127.386ZM87.6593 124.396L87.672 125.221H86.485C86.1507 125.221 85.8524 125.249 85.59 125.304C85.3276 125.354 85.1076 125.433 84.9299 125.539C84.7521 125.644 84.6167 125.778 84.5236 125.938C84.4305 126.095 84.384 126.279 84.384 126.491C84.384 126.707 84.4326 126.903 84.53 127.081C84.6273 127.259 84.7733 127.401 84.9679 127.506C85.1668 127.608 85.4102 127.659 85.6979 127.659C86.0576 127.659 86.375 127.583 86.6501 127.43C86.9251 127.278 87.1431 127.092 87.3039 126.872C87.4689 126.652 87.5578 126.438 87.5705 126.23L88.0719 126.795C88.0423 126.973 87.9619 127.17 87.8307 127.386C87.6995 127.602 87.5239 127.809 87.3039 128.008C87.0881 128.202 86.8299 128.365 86.5295 128.497C86.2332 128.624 85.8989 128.687 85.5265 128.687C85.061 128.687 84.6527 128.596 84.3014 128.414C83.9544 128.232 83.6836 127.989 83.4889 127.684C83.2985 127.375 83.2033 127.03 83.2033 126.649C83.2033 126.281 83.2752 125.958 83.4191 125.678C83.563 125.395 83.7704 125.16 84.0412 124.974C84.312 124.783 84.6379 124.639 85.0187 124.542C85.3996 124.445 85.8249 124.396 86.2946 124.396H87.6593ZM93.6132 121.692V122.593H89.8998V121.692H93.6132ZM91.1567 120.022H92.331V126.859C92.331 127.092 92.3669 127.267 92.4389 127.386C92.5108 127.504 92.6039 127.583 92.7182 127.621C92.8324 127.659 92.9552 127.678 93.0863 127.678C93.1837 127.678 93.2852 127.669 93.391 127.652C93.5011 127.631 93.5836 127.614 93.6386 127.602L93.6449 128.56C93.5518 128.59 93.4291 128.617 93.2768 128.643C93.1287 128.672 92.9488 128.687 92.7372 128.687C92.4495 128.687 92.185 128.63 91.9438 128.516C91.7025 128.401 91.51 128.211 91.3661 127.944C91.2265 127.674 91.1567 127.31 91.1567 126.853V120.022ZM99.3004 127.386V123.85C99.3004 123.579 99.2454 123.344 99.1354 123.146C99.0296 122.942 98.8688 122.786 98.653 122.676C98.4372 122.566 98.1706 122.511 97.8532 122.511C97.5569 122.511 97.2967 122.562 97.0724 122.663C96.8524 122.765 96.6789 122.898 96.5519 123.063C96.4292 123.228 96.3678 123.406 96.3678 123.596H95.1935C95.1935 123.351 95.257 123.107 95.3839 122.866C95.5109 122.625 95.6929 122.407 95.9298 122.212C96.171 122.014 96.4588 121.857 96.7931 121.743C97.1317 121.624 97.5083 121.565 97.923 121.565C98.4223 121.565 98.8624 121.65 99.2433 121.819C99.6284 121.988 99.9289 122.244 100.145 122.587C100.365 122.925 100.475 123.351 100.475 123.863V127.062C100.475 127.291 100.494 127.534 100.532 127.792C100.574 128.05 100.636 128.272 100.716 128.458V128.56H99.4909C99.4316 128.425 99.3851 128.245 99.3512 128.021C99.3174 127.792 99.3004 127.58 99.3004 127.386ZM99.5036 124.396L99.5163 125.221H98.3292C97.9949 125.221 97.6966 125.249 97.4342 125.304C97.1719 125.354 96.9518 125.433 96.7741 125.539C96.5963 125.644 96.4609 125.778 96.3678 125.938C96.2747 126.095 96.2282 126.279 96.2282 126.491C96.2282 126.707 96.2768 126.903 96.3742 127.081C96.4715 127.259 96.6175 127.401 96.8122 127.506C97.011 127.608 97.2544 127.659 97.5421 127.659C97.9018 127.659 98.2192 127.583 98.4943 127.43C98.7694 127.278 98.9873 127.092 99.1481 126.872C99.3131 126.652 99.402 126.438 99.4147 126.23L99.9162 126.795C99.8865 126.973 99.8061 127.17 99.6749 127.386C99.5438 127.602 99.3681 127.809 99.1481 128.008C98.9323 128.202 98.6741 128.365 98.3737 128.497C98.0775 128.624 97.7431 128.687 97.3708 128.687C96.9053 128.687 96.4969 128.596 96.1457 128.414C95.7986 128.232 95.5278 127.989 95.3332 127.684C95.1427 127.375 95.0475 127.03 95.0475 126.649C95.0475 126.281 95.1194 125.958 95.2633 125.678C95.4072 125.395 95.6146 125.16 95.8854 124.974C96.1562 124.783 96.4821 124.639 96.8629 124.542C97.2438 124.445 97.6691 124.396 98.1388 124.396H99.5036ZM103.858 118.81V128.56H102.677V118.81H103.858ZM107.933 127.849L109.843 121.692H111.1L108.345 129.62C108.282 129.789 108.197 129.971 108.091 130.166C107.99 130.365 107.859 130.553 107.698 130.731C107.537 130.909 107.342 131.053 107.114 131.163C106.89 131.277 106.621 131.334 106.308 131.334C106.215 131.334 106.096 131.321 105.952 131.296C105.808 131.271 105.707 131.249 105.648 131.232L105.641 130.28C105.675 130.285 105.728 130.289 105.8 130.293C105.876 130.301 105.929 130.306 105.959 130.306C106.225 130.306 106.452 130.27 106.638 130.198C106.824 130.13 106.981 130.014 107.108 129.849C107.239 129.688 107.351 129.466 107.444 129.182L107.933 127.849ZM106.53 121.692L108.314 127.024L108.618 128.262L107.774 128.693L105.248 121.692H106.53ZM116.419 126.738C116.419 126.569 116.381 126.412 116.305 126.269C116.233 126.12 116.083 125.987 115.854 125.869C115.63 125.746 115.292 125.64 114.839 125.551C114.458 125.471 114.113 125.376 113.804 125.266C113.499 125.156 113.239 125.022 113.023 124.866C112.812 124.709 112.649 124.525 112.535 124.313C112.42 124.102 112.363 123.854 112.363 123.571C112.363 123.3 112.422 123.044 112.541 122.803C112.664 122.562 112.835 122.348 113.055 122.162C113.279 121.975 113.548 121.829 113.861 121.724C114.174 121.618 114.523 121.565 114.909 121.565C115.459 121.565 115.928 121.662 116.318 121.857C116.707 122.052 117.005 122.312 117.213 122.638C117.42 122.959 117.524 123.317 117.524 123.71H116.349C116.349 123.52 116.292 123.336 116.178 123.158C116.068 122.976 115.905 122.826 115.689 122.708C115.478 122.589 115.217 122.53 114.909 122.53C114.583 122.53 114.318 122.581 114.115 122.682C113.916 122.779 113.77 122.904 113.677 123.057C113.588 123.209 113.544 123.37 113.544 123.539C113.544 123.666 113.565 123.78 113.607 123.882C113.654 123.979 113.734 124.07 113.849 124.155C113.963 124.235 114.124 124.311 114.331 124.383C114.538 124.455 114.803 124.527 115.124 124.599C115.687 124.726 116.151 124.878 116.515 125.056C116.878 125.234 117.149 125.452 117.327 125.71C117.505 125.968 117.594 126.281 117.594 126.649C117.594 126.95 117.53 127.225 117.403 127.475C117.28 127.724 117.101 127.94 116.864 128.122C116.631 128.3 116.352 128.439 116.026 128.541C115.704 128.638 115.342 128.687 114.94 128.687C114.335 128.687 113.823 128.579 113.404 128.363C112.985 128.147 112.668 127.868 112.452 127.525C112.236 127.183 112.128 126.821 112.128 126.44H113.309C113.326 126.762 113.419 127.018 113.588 127.208C113.758 127.394 113.965 127.528 114.21 127.608C114.456 127.684 114.699 127.722 114.94 127.722C115.262 127.722 115.531 127.68 115.746 127.595C115.967 127.511 116.134 127.394 116.248 127.246C116.362 127.098 116.419 126.929 116.419 126.738ZM122.272 121.692V122.593H118.558V121.692H122.272ZM119.815 120.022H120.989V126.859C120.989 127.092 121.025 127.267 121.097 127.386C121.169 127.504 121.262 127.583 121.377 127.621C121.491 127.659 121.614 127.678 121.745 127.678C121.842 127.678 121.944 127.669 122.049 127.652C122.159 127.631 122.242 127.614 122.297 127.602L122.303 128.56C122.21 128.59 122.088 128.617 121.935 128.643C121.787 128.672 121.607 128.687 121.396 128.687C121.108 128.687 120.843 128.63 120.602 128.516C120.361 128.401 120.168 128.211 120.025 127.944C119.885 127.674 119.815 127.31 119.815 126.853V120.022ZM127.908 126.738C127.908 126.569 127.87 126.412 127.794 126.269C127.722 126.12 127.572 125.987 127.343 125.869C127.119 125.746 126.78 125.64 126.327 125.551C125.947 125.471 125.602 125.376 125.293 125.266C124.988 125.156 124.728 125.022 124.512 124.866C124.3 124.709 124.138 124.525 124.023 124.313C123.909 124.102 123.852 123.854 123.852 123.571C123.852 123.3 123.911 123.044 124.03 122.803C124.152 122.562 124.324 122.348 124.544 122.162C124.768 121.975 125.037 121.829 125.35 121.724C125.663 121.618 126.012 121.565 126.397 121.565C126.947 121.565 127.417 121.662 127.806 121.857C128.196 122.052 128.494 122.312 128.702 122.638C128.909 122.959 129.013 123.317 129.013 123.71H127.838C127.838 123.52 127.781 123.336 127.667 123.158C127.557 122.976 127.394 122.826 127.178 122.708C126.966 122.589 126.706 122.53 126.397 122.53C126.071 122.53 125.807 122.581 125.604 122.682C125.405 122.779 125.259 122.904 125.166 123.057C125.077 123.209 125.033 123.37 125.033 123.539C125.033 123.666 125.054 123.78 125.096 123.882C125.143 123.979 125.223 124.07 125.337 124.155C125.452 124.235 125.612 124.311 125.82 124.383C126.027 124.455 126.292 124.527 126.613 124.599C127.176 124.726 127.639 124.878 128.003 125.056C128.367 125.234 128.638 125.452 128.816 125.71C128.994 125.968 129.082 126.281 129.082 126.649C129.082 126.95 129.019 127.225 128.892 127.475C128.769 127.724 128.589 127.94 128.352 128.122C128.12 128.3 127.84 128.439 127.515 128.541C127.193 128.638 126.831 128.687 126.429 128.687C125.824 128.687 125.312 128.579 124.893 128.363C124.474 128.147 124.157 127.868 123.941 127.525C123.725 127.183 123.617 126.821 123.617 126.44H124.798C124.815 126.762 124.908 127.018 125.077 127.208C125.246 127.394 125.454 127.528 125.699 127.608C125.945 127.684 126.188 127.722 126.429 127.722C126.751 127.722 127.019 127.68 127.235 127.595C127.455 127.511 127.622 127.394 127.737 127.246C127.851 127.098 127.908 126.929 127.908 126.738Z" fill="white"/>
<mask id="mask0_63_1636" style="mask-type:alpha" maskUnits="userSpaceOnUse" x="52" y="12" width="70" height="103">
<rect x="52.6313" y="12.1243" width="69" height="102" fill="#D9D9D9"/>
</mask>
<g mask="url(#mask0_63_1636)">
<path d="M75.185 46.0536C75.2881 45.6602 75.3007 45.2372 75.206 44.8122C74.8946 43.4298 73.5585 42.544 72.1782 42.7755" stroke="white" stroke-width="0.9" stroke-linecap="round" stroke-linejoin="round"/>
<path d="M67.8589 42.9502C63.9326 42.5357 59.9243 40.7746 57.5025 39.0261C56.1117 38.0224 55.0239 37.0124 54.298 36.2655C53.9361 35.8931 52.903 34.7085 52.6905 34.5591C49.7574 31.6176 46.8243 28.6739 43.8911 25.7324C43.7733 25.6125 43.6197 25.501 43.4388 25.3979C43.0053 25.0296 42.25 24.4363 41.2232 23.8282C39.643 22.9066 37.3853 21.9156 34.6331 21.9072C31.9546 21.8819 28.8953 22.9739 26.2736 25.6083C23.6329 28.2363 21.3142 32.2698 19.349 38.3485C18.8987 39.7457 19.6667 41.2417 21.0617 41.6919C21.3332 41.7803 21.6088 41.8203 21.8781 41.8203C22.9996 41.8203 24.0432 41.1028 24.4051 39.9771C26.1957 34.4076 28.2283 31.1378 30.0126 29.3809C31.8179 27.6282 33.2571 27.2452 34.631 27.22C35.256 27.2158 35.8851 27.3294 36.4847 27.5083C31.1635 33.89 28.1673 41.7424 25.4193 49.6959C25.3267 49.961 25.272 50.2261 25.2405 50.4871C24.9059 51.5854 25.0216 52.8163 25.6697 53.8704C25.6697 53.8704 25.676 53.881 25.6929 53.9062C25.8927 54.2513 27.3761 57.056 27.3593 60.9549C27.3551 63.0232 26.9721 65.4177 25.7644 68.113C24.5503 70.8063 22.4946 73.8278 19.0039 77.0491C17.3186 78.6019 17.2113 81.2278 18.7662 82.9153C19.5847 83.8032 20.6998 84.2535 21.8192 84.2535C22.825 84.2535 23.8328 83.8895 24.6324 83.1552C28.8385 79.2795 31.6285 75.3238 33.3391 71.5175C35.0519 67.7133 35.6662 64.0816 35.662 60.9549C35.662 60.351 35.6368 59.7661 35.5947 59.2022C35.5716 58.8782 35.9187 58.6636 36.1965 58.8277C37.0907 59.36 38.3784 60.2353 39.5967 61.4578C40.6782 62.5351 41.7071 63.8649 42.4583 65.4556C43.2094 67.0547 43.7081 68.9105 43.7123 71.2313C43.7123 73.2596 43.3188 75.6583 42.2542 78.522C41.4525 80.6703 42.5445 83.0605 44.6928 83.8622C45.1704 84.041 45.6607 84.1252 46.1425 84.1252C47.8258 84.1252 49.4102 83.0942 50.033 81.4235C51.4028 77.7561 52.0171 74.3454 52.015 71.2313C52.0193 67.5576 51.1503 64.3215 49.8436 61.6577C47.8784 57.6494 45.021 54.933 42.6897 53.1929C42.069 52.73 41.482 52.3387 40.9517 52.0041C42.917 45.0922 46.0794 42.6262 50.7884 40.2717C51.67 41.1512 52.8756 42.2348 54.3906 43.331C57.6961 45.7192 63.1625 48.6333 69.4811 48.0779" stroke="white" stroke-width="0.9" stroke-linecap="round" stroke-linejoin="round"/>
<path d="M103.883 41.4969C104.047 37.3749 100.839 33.9003 96.7166 33.7361C92.5946 33.572 89.12 36.7806 88.9559 40.9026C88.7917 45.0246 92.0003 48.4993 96.1223 48.6634C100.244 48.8275 103.719 45.619 103.883 41.4969Z" stroke="white" stroke-width="0.9" stroke-linecap="round" stroke-linejoin="round"/>
<path d="M111.11 49.0627C108.692 48.1811 106.609 48.0885 105.7 48.0822C105.357 48.0359 105.048 48.038 104.799 48.0969C100.795 49.0311 96.7912 49.9675 92.7893 50.9038C92.3053 50.9375 91.6341 50.9711 90.8219 50.9711C88.5285 50.9732 85.122 50.706 81.6944 49.5551C79.6892 48.8818 77.6924 47.9223 75.8492 46.5546C74.5321 45.5783 73.297 44.3916 72.1965 42.9461C72.1355 42.8662 72.0703 42.7904 72.0008 42.7189C71.0792 41.7531 69.5601 41.6121 68.4723 42.439C68.2766 42.5863 68.1104 42.7589 67.9694 42.944C67.2624 43.8698 67.2245 45.1891 67.9652 46.1612C68.5417 46.9207 69.1498 47.6214 69.781 48.2737C72.8761 51.4761 76.5373 53.4371 80.0048 54.5944C84.1898 55.9915 88.1308 56.2818 90.8198 56.284C90.8619 56.284 90.8998 56.284 90.9419 56.284C93.5551 60.4522 95.0743 63.8945 93.9697 69.5818C93.1238 69.0558 92.2064 68.5529 91.2154 68.1111C89.328 67.2736 87.1545 66.6403 84.7474 66.6361C81.8354 66.6066 78.6203 67.6944 76.0007 70.0405C73.3601 72.3782 71.2392 75.7657 69.5096 80.4116C68.7121 82.5599 69.8063 84.9501 71.9566 85.7476C72.4322 85.9243 72.9203 86.0085 73.4001 86.0085C75.0854 86.0085 76.6719 84.9754 77.2926 83.3005C78.6982 79.5026 80.2426 77.3564 81.4882 76.2686C82.7548 75.1913 83.647 74.9662 84.7474 74.9367C85.648 74.9325 86.719 75.1934 87.8383 75.6921C89.5174 76.4327 91.2301 77.6994 92.4463 78.7788C93.0565 79.3174 93.5488 79.8056 93.8771 80.1444C94.0412 80.3148 94.1632 80.4473 94.239 80.5315C94.2769 80.5736 94.3042 80.603 94.3168 80.6199C94.3189 80.6241 94.321 80.6262 94.3231 80.6262C94.3231 80.6262 94.3231 80.6283 94.3253 80.6304C95.3668 81.8424 98.2557 83.917 98.2557 85.0448C98.2473 90.6206 99.7159 98.5678 105.208 107.996C105.978 109.322 107.371 110.062 108.799 110.062C109.506 110.062 110.226 109.881 110.882 109.501C112.864 108.348 113.538 105.808 112.385 103.826C107.594 95.5653 106.565 89.2004 106.558 85.0469C106.558 83.0859 106.796 81.613 107.009 80.6809C107.116 80.2138 107.217 79.8835 107.28 79.692C107.312 79.5973 107.335 79.5384 107.343 79.5173V79.511C107.417 79.3343 107.474 79.1554 107.522 78.9766C107.636 78.7367 107.73 78.48 107.791 78.2044C109.595 70.3204 111.16 62.3942 110.266 54.4807C110.462 54.5796 110.655 54.6848 110.844 54.8027C111.867 55.4318 112.791 56.2882 113.515 57.6074C114.232 58.9288 114.769 60.7657 114.771 63.4463C114.771 65.361 114.489 67.6944 113.792 70.5034C113.439 71.9279 114.306 73.3692 115.73 73.7227C115.945 73.7753 116.159 73.8005 116.372 73.8005C117.565 73.8005 118.649 72.9925 118.949 71.7827C119.73 68.6329 120.084 65.8786 120.084 63.4463C120.088 60.0524 119.381 57.2645 118.179 55.0636C116.376 51.7433 113.534 49.9422 111.103 49.0627H111.11Z" stroke="white" stroke-width="0.9" stroke-linecap="round" stroke-linejoin="round"/>
<path opacity="0.7" d="M11.6313 85.124H67.1043C70.7052 85.124 73.6313 87.8484 73.6313 91.2058V112.124H11.6313V85.124Z" stroke="white" stroke-width="0.9" stroke-linecap="round" stroke-linejoin="round"/>
<path fill-rule="evenodd" clip-rule="evenodd" d="M70.0695 37.7109C70.1964 37.9329 70.3787 38.1258 70.5743 38.2897C70.791 38.4747 71.0421 38.6307 71.317 38.7417C71.584 38.8447 71.872 38.9082 72.1628 38.8844C72.4588 38.8606 72.7363 38.7417 72.9662 38.5434L76.2885 34.4468H70.9576C70.6008 34.5102 70.2598 34.6741 70.0219 34.9569C69.8131 35.2106 69.6942 35.5357 69.6519 35.8608C69.6096 36.1991 69.6334 36.5453 69.7153 36.8731C69.7867 37.1691 69.8977 37.4624 70.0669 37.7109H70.0695Z" fill="white"/>
<path fill-rule="evenodd" clip-rule="evenodd" d="M82.8614 34.9569C82.6262 34.6741 82.2746 34.5076 81.9178 34.4468H76.6001L79.9277 38.5434C80.1497 38.7443 80.4272 38.8632 80.7285 38.8844C81.0113 38.9082 81.3047 38.8447 81.5716 38.7417C81.8438 38.6307 82.0949 38.4747 82.3143 38.2897C82.5099 38.1258 82.6949 37.9329 82.8191 37.7109C82.9909 37.4624 83.0966 37.1691 83.1653 36.8731C83.2446 36.5453 83.2737 36.1964 83.2261 35.8608C83.1891 35.5357 83.0728 35.2132 82.8587 34.9569H82.8614Z" fill="white"/>
<path fill-rule="evenodd" clip-rule="evenodd" d="M76.4505 34.4731L74.077 39.146C73.9925 39.4182 74.0057 39.7195 74.1141 39.9812C74.2224 40.2349 74.4101 40.4569 74.6294 40.634C74.8514 40.819 75.1052 40.967 75.3774 41.0701C75.6179 41.1652 75.8822 41.2313 76.1412 41.2419C76.4558 41.2736 76.7782 41.2419 77.0848 41.1732C77.431 41.0939 77.764 40.9697 78.0653 40.7794C78.3429 40.6076 78.5992 40.3644 78.7446 40.0657C78.8979 39.7459 78.9058 39.3759 78.8054 39.035L76.4505 34.4758V34.4731Z" fill="white"/>
<path fill-rule="evenodd" clip-rule="evenodd" d="M70.0232 33.4292C70.2611 33.7067 70.602 33.8785 70.9588 33.9393H76.2898L72.9675 29.84C72.7376 29.6444 72.4574 29.5202 72.164 29.5017C71.8733 29.4779 71.5852 29.5387 71.3183 29.6471C71.046 29.7581 70.795 29.9114 70.5756 30.099C70.38 30.2603 70.1976 30.4558 70.0708 30.6726C69.899 30.921 69.788 31.2249 69.7193 31.5157C69.6373 31.8434 69.6135 32.187 69.6558 32.528C69.6981 32.853 69.817 33.1808 70.0258 33.4319L70.0232 33.4292Z" fill="white"/>
<path fill-rule="evenodd" clip-rule="evenodd" d="M81.9191 33.9394C82.2759 33.8786 82.6274 33.7068 82.8626 33.4293C83.0741 33.1782 83.1904 32.8505 83.23 32.5254C83.275 32.1845 83.2485 31.8409 83.1692 31.5131C83.1005 31.2224 82.9948 30.9211 82.823 30.67C82.6988 30.4507 82.5138 30.2577 82.3182 30.0965C82.0962 29.9062 81.8477 29.7555 81.5755 29.6445C81.3059 29.5362 81.0152 29.478 80.7324 29.4992C80.4337 29.5177 80.1536 29.6393 79.9316 29.8375L76.604 33.9368H81.9217L81.9191 33.9394Z" fill="white"/>
<path fill-rule="evenodd" clip-rule="evenodd" d="M76.4485 33.9051L78.8034 29.3459C78.9039 29.0023 78.8959 28.6323 78.7427 28.3151C78.5946 28.0191 78.3383 27.7786 78.0634 27.6041C77.7621 27.4191 77.4291 27.2896 77.0828 27.2077C76.7763 27.1363 76.4538 27.1046 76.1393 27.1363C75.8803 27.1495 75.616 27.2183 75.3755 27.3108C75.1032 27.4218 74.8495 27.5618 74.6275 27.7521C74.4081 27.9319 74.2205 28.1486 74.1121 28.405C74.0064 28.6719 73.9932 28.9653 74.0751 29.2428L76.4485 33.9077V33.9051Z" fill="white"/>
</g>
<line x1="52.0813" y1="13.1243" x2="52.0813" y2="112.124" stroke="white" stroke-width="0.9"/>
<defs>
<filter id="filter0_d_63_1636" x="-0.000113726" y="0" width="169.748" height="148.87" filterUnits="userSpaceOnUse" color-interpolation-filters="sRGB">
<feFlood flood-opacity="0" result="BackgroundImageFix"/>
<feColorMatrix in="SourceAlpha" type="matrix" values="0 0 0 0 0 0 0 0 0 0 0 0 0 0 0 0 0 0 127 0" result="hardAlpha"/>
<feOffset dy="3.63097"/>
<feGaussianBlur stdDeviation="1.81549"/>
<feComposite in2="hardAlpha" operator="out"/>
<feColorMatrix type="matrix" values="0 0 0 0 0 0 0 0 0 0 0 0 0 0 0 0 0 0 0.25 0"/>
<feBlend mode="normal" in2="BackgroundImageFix" result="effect1_dropShadow_63_1636"/>
<feBlend mode="normal" in="SourceGraphic" in2="effect1_dropShadow_63_1636" result="shape"/>
</filter>
<linearGradient id="paint0_linear_63_1636" x1="3.63086" y1="70.804" x2="166.117" y2="70.804" gradientUnits="userSpaceOnUse">
<stop stop-color="#08A03F"/>
<stop offset="0.356716" stop-color="#09C74E"/>
<stop offset="1" stop-color="#09F519"/>
</linearGradient>
</defs>
</svg>
