<svg width="706" height="1401" viewBox="0 0 706 1401" fill="none" xmlns="http://www.w3.org/2000/svg">
<g style="mix-blend-mode:screen" opacity="0.2">
<path fill-rule="evenodd" clip-rule="evenodd" d="M361.767 53.1741C339.266 66.2403 319.557 85.0941 303.132 105.084C284.402 127.415 268.656 153.104 257.471 181.079C247.231 208.414 240.916 237.83 243.688 267.596C246.252 297.68 258.625 325.997 279.198 349.389L699.644 685.012L695.313 141.255C688.474 104.867 671.614 70.1427 642.586 46.2899C616.433 25.2662 583.38 13.1705 550.181 9.31531C515.714 5.36454 480.242 7.9709 446.826 16.5819C416.674 24.005 386.978 35.5441 361.661 53.1749L361.767 53.1741Z" fill="#08A03F"/>
<path fill-rule="evenodd" clip-rule="evenodd" d="M653.135 1355.83C681.779 1331.52 698.5 1295.58 704.336 1259.09L700.016 716.706L284.973 1059.51C264.768 1082.28 252.847 1110.79 250.767 1141.44C248.568 1170.29 255.355 1200.13 265.924 1227.41C277.448 1255.2 293.704 1280.42 312.792 1302.98C329.534 1322.81 349.436 1341.46 372.247 1354.06C397.842 1371.39 427.714 1381.92 457.979 1388.76C491.527 1396.63 527.039 1399.09 561.436 1394.17C594.572 1390.1 627.431 1377.9 653.243 1356.04L653.135 1355.83Z" fill="#08A03F"/>
<path fill-rule="evenodd" clip-rule="evenodd" d="M697.174 701.224L218.666 462.822C190.818 454.487 160.198 456.104 133.35 467.198C107.453 478.284 84.8985 497.9 67.2245 520.224C48.4977 542.978 33.6004 569.082 23.3647 596.945C13.8424 621.527 7.40262 648.514 6.55752 675.035C3.53803 707.065 7.07479 739.994 14.5062 771.202C22.8156 806.522 35.8669 840.431 55.4402 870.909C73.0937 899.077 98.3348 924.967 128.663 939.725C161.32 955.099 199.14 955.643 234.02 945.013L697.278 701.012L697.174 701.224Z" fill="#08A03F"/>
</g>
</svg>
